<?xml version="1.0" encoding="utf-8" standalone="no"?>
<!DOCTYPE svg PUBLIC "-//W3C//DTD SVG 1.1//EN"
  "http://www.w3.org/Graphics/SVG/1.1/DTD/svg11.dtd">
<svg height="864pt" version="1.1" viewBox="0 0 864 864" width="864pt" xmlns="http://www.w3.org/2000/svg" xmlns:xlink="http://www.w3.org/1999/xlink">
 <metadata>
  <rdf:RDF xmlns:cc="http://creativecommons.org/ns#" xmlns:dc="http://purl.org/dc/elements/1.1/" xmlns:rdf="http://www.w3.org/1999/02/22-rdf-syntax-ns#">
   <cc:Work>
    <dc:type rdf:resource="http://purl.org/dc/dcmitype/StillImage"/>
    <dc:date>2022-06-19T17:49:48.189857</dc:date>
    <dc:format>image/svg+xml</dc:format>
    <dc:creator>
     <cc:Agent>
      <dc:title>Matplotlib v3.4.3, https://matplotlib.org/</dc:title>
     </cc:Agent>
    </dc:creator>
   </cc:Work>
  </rdf:RDF>
 </metadata>
 <defs>
  <style type="text/css">*{stroke-linecap:butt;stroke-linejoin:round;}</style>
 </defs>
 <g id="figure_1">
  <g id="patch_1">
   <path d="M 0 864 
L 864 864 
L 864 0 
L 0 0 
z
" style="fill:#ffffff;"/>
  </g>
  <g id="axes_1">
   <g id="patch_2">
    <path d="M 36 256.42 
L 818.859963 256.42 
L 818.859963 50.69625 
L 36 50.69625 
z
" style="fill:#ffffff;"/>
   </g>
   <g id="matplotlib.axis_1">
    <g id="xtick_1">
     <g id="text_1">
      <!-- 0 -->
      <g style="fill:#262626;" transform="translate(149.56849 273.793594)scale(0.11 -0.11)">
       <defs>
        <path d="M 266 2259 
Q 266 3072 433 3567 
Q 600 4063 929 4331 
Q 1259 4600 1759 4600 
Q 2128 4600 2406 4451 
Q 2684 4303 2865 4023 
Q 3047 3744 3150 3342 
Q 3253 2941 3253 2259 
Q 3253 1453 3087 958 
Q 2922 463 2592 192 
Q 2263 -78 1759 -78 
Q 1097 -78 719 397 
Q 266 969 266 2259 
z
M 844 2259 
Q 844 1131 1108 757 
Q 1372 384 1759 384 
Q 2147 384 2411 759 
Q 2675 1134 2675 2259 
Q 2675 3391 2411 3762 
Q 2147 4134 1753 4134 
Q 1366 4134 1134 3806 
Q 844 3388 844 2259 
z
" id="ArialMT-30" transform="scale(0.015625)"/>
       </defs>
       <use xlink:href="#ArialMT-30"/>
      </g>
     </g>
    </g>
    <g id="xtick_2">
     <g id="text_2">
      <!-- 20 -->
      <g style="fill:#262626;" transform="translate(279.747222 273.793594)scale(0.11 -0.11)">
       <defs>
        <path d="M 3222 541 
L 3222 0 
L 194 0 
Q 188 203 259 391 
Q 375 700 629 1000 
Q 884 1300 1366 1694 
Q 2113 2306 2375 2664 
Q 2638 3022 2638 3341 
Q 2638 3675 2398 3904 
Q 2159 4134 1775 4134 
Q 1369 4134 1125 3890 
Q 881 3647 878 3216 
L 300 3275 
Q 359 3922 746 4261 
Q 1134 4600 1788 4600 
Q 2447 4600 2831 4234 
Q 3216 3869 3216 3328 
Q 3216 3053 3103 2787 
Q 2991 2522 2730 2228 
Q 2469 1934 1863 1422 
Q 1356 997 1212 845 
Q 1069 694 975 541 
L 3222 541 
z
" id="ArialMT-32" transform="scale(0.015625)"/>
       </defs>
       <use xlink:href="#ArialMT-32"/>
       <use x="55.615234" xlink:href="#ArialMT-30"/>
      </g>
     </g>
    </g>
    <g id="xtick_3">
     <g id="text_3">
      <!-- 40 -->
      <g style="fill:#262626;" transform="translate(412.984469 273.793594)scale(0.11 -0.11)">
       <defs>
        <path d="M 2069 0 
L 2069 1097 
L 81 1097 
L 81 1613 
L 2172 4581 
L 2631 4581 
L 2631 1613 
L 3250 1613 
L 3250 1097 
L 2631 1097 
L 2631 0 
L 2069 0 
z
M 2069 1613 
L 2069 3678 
L 634 1613 
L 2069 1613 
z
" id="ArialMT-34" transform="scale(0.015625)"/>
       </defs>
       <use xlink:href="#ArialMT-34"/>
       <use x="55.615234" xlink:href="#ArialMT-30"/>
      </g>
     </g>
    </g>
    <g id="xtick_4">
     <g id="text_4">
      <!-- 60 -->
      <g style="fill:#262626;" transform="translate(546.221715 273.793594)scale(0.11 -0.11)">
       <defs>
        <path d="M 3184 3459 
L 2625 3416 
Q 2550 3747 2413 3897 
Q 2184 4138 1850 4138 
Q 1581 4138 1378 3988 
Q 1113 3794 959 3422 
Q 806 3050 800 2363 
Q 1003 2672 1297 2822 
Q 1591 2972 1913 2972 
Q 2475 2972 2870 2558 
Q 3266 2144 3266 1488 
Q 3266 1056 3080 686 
Q 2894 316 2569 119 
Q 2244 -78 1831 -78 
Q 1128 -78 684 439 
Q 241 956 241 2144 
Q 241 3472 731 4075 
Q 1159 4600 1884 4600 
Q 2425 4600 2770 4297 
Q 3116 3994 3184 3459 
z
M 888 1484 
Q 888 1194 1011 928 
Q 1134 663 1356 523 
Q 1578 384 1822 384 
Q 2178 384 2434 671 
Q 2691 959 2691 1453 
Q 2691 1928 2437 2201 
Q 2184 2475 1800 2475 
Q 1419 2475 1153 2201 
Q 888 1928 888 1484 
z
" id="ArialMT-36" transform="scale(0.015625)"/>
       </defs>
       <use xlink:href="#ArialMT-36"/>
       <use x="55.615234" xlink:href="#ArialMT-30"/>
      </g>
     </g>
    </g>
    <g id="xtick_5">
     <g id="text_5">
      <!-- 80 -->
      <g style="fill:#262626;" transform="translate(679.458962 273.793594)scale(0.11 -0.11)">
       <defs>
        <path d="M 1131 2484 
Q 781 2613 612 2850 
Q 444 3088 444 3419 
Q 444 3919 803 4259 
Q 1163 4600 1759 4600 
Q 2359 4600 2725 4251 
Q 3091 3903 3091 3403 
Q 3091 3084 2923 2848 
Q 2756 2613 2416 2484 
Q 2838 2347 3058 2040 
Q 3278 1734 3278 1309 
Q 3278 722 2862 322 
Q 2447 -78 1769 -78 
Q 1091 -78 675 323 
Q 259 725 259 1325 
Q 259 1772 486 2073 
Q 713 2375 1131 2484 
z
M 1019 3438 
Q 1019 3113 1228 2906 
Q 1438 2700 1772 2700 
Q 2097 2700 2305 2904 
Q 2513 3109 2513 3406 
Q 2513 3716 2298 3927 
Q 2084 4138 1766 4138 
Q 1444 4138 1231 3931 
Q 1019 3725 1019 3438 
z
M 838 1322 
Q 838 1081 952 856 
Q 1066 631 1291 507 
Q 1516 384 1775 384 
Q 2178 384 2440 643 
Q 2703 903 2703 1303 
Q 2703 1709 2433 1975 
Q 2163 2241 1756 2241 
Q 1359 2241 1098 1978 
Q 838 1716 838 1322 
z
" id="ArialMT-38" transform="scale(0.015625)"/>
       </defs>
       <use xlink:href="#ArialMT-38"/>
       <use x="55.615234" xlink:href="#ArialMT-30"/>
      </g>
     </g>
    </g>
    <g id="xtick_6">
     <g id="text_6">
      <!-- 100 -->
      <g style="fill:#262626;" transform="translate(809.637694 273.793594)scale(0.11 -0.11)">
       <defs>
        <path d="M 2384 0 
L 1822 0 
L 1822 3584 
Q 1619 3391 1289 3197 
Q 959 3003 697 2906 
L 697 3450 
Q 1169 3672 1522 3987 
Q 1875 4303 2022 4600 
L 2384 4600 
L 2384 0 
z
" id="ArialMT-31" transform="scale(0.015625)"/>
       </defs>
       <use xlink:href="#ArialMT-31"/>
       <use x="55.615234" xlink:href="#ArialMT-30"/>
       <use x="111.230469" xlink:href="#ArialMT-30"/>
      </g>
     </g>
    </g>
   </g>
   <g id="matplotlib.axis_2"/>
   <g id="PolyCollection_1">
    <defs>
     <path d="M 71.584544 -607.66404 
L 71.584544 -607.58 
L 75.146808 -607.58 
L 78.709072 -607.58 
L 82.271337 -607.58 
L 85.833601 -607.58 
L 89.395865 -607.58 
L 92.958129 -607.58 
L 96.520394 -607.58 
L 100.082658 -607.58 
L 103.644922 -607.58 
L 107.207186 -607.58 
L 110.769451 -607.58 
L 114.331715 -607.58 
L 117.893979 -607.58 
L 121.456243 -607.58 
L 125.018508 -607.58 
L 128.580772 -607.58 
L 132.143036 -607.58 
L 135.7053 -607.58 
L 139.267565 -607.58 
L 142.829829 -607.58 
L 146.392093 -607.58 
L 149.954357 -607.58 
L 153.516622 -607.58 
L 157.078886 -607.58 
L 160.64115 -607.58 
L 164.203414 -607.58 
L 167.765679 -607.58 
L 171.327943 -607.58 
L 174.890207 -607.58 
L 178.452471 -607.58 
L 182.014736 -607.58 
L 185.577 -607.58 
L 189.139264 -607.58 
L 192.701528 -607.58 
L 196.263793 -607.58 
L 199.826057 -607.58 
L 203.388321 -607.58 
L 206.950585 -607.58 
L 210.51285 -607.58 
L 214.075114 -607.58 
L 217.637378 -607.58 
L 221.199642 -607.58 
L 224.761907 -607.58 
L 228.324171 -607.58 
L 231.886435 -607.58 
L 235.448699 -607.58 
L 239.010963 -607.58 
L 242.573228 -607.58 
L 246.135492 -607.58 
L 249.697756 -607.58 
L 253.26002 -607.58 
L 256.822285 -607.58 
L 260.384549 -607.58 
L 263.946813 -607.58 
L 267.509077 -607.58 
L 271.071342 -607.58 
L 274.633606 -607.58 
L 278.19587 -607.58 
L 281.758134 -607.58 
L 285.320399 -607.58 
L 288.882663 -607.58 
L 292.444927 -607.58 
L 296.007191 -607.58 
L 299.569456 -607.58 
L 303.13172 -607.58 
L 306.693984 -607.58 
L 310.256248 -607.58 
L 313.818513 -607.58 
L 317.380777 -607.58 
L 320.943041 -607.58 
L 324.505305 -607.58 
L 328.06757 -607.58 
L 331.629834 -607.58 
L 335.192098 -607.58 
L 338.754362 -607.58 
L 342.316627 -607.58 
L 345.878891 -607.58 
L 349.441155 -607.58 
L 353.003419 -607.58 
L 356.565684 -607.58 
L 360.127948 -607.58 
L 363.690212 -607.58 
L 367.252476 -607.58 
L 370.814741 -607.58 
L 374.377005 -607.58 
L 377.939269 -607.58 
L 381.501533 -607.58 
L 385.063798 -607.58 
L 388.626062 -607.58 
L 392.188326 -607.58 
L 395.75059 -607.58 
L 399.312855 -607.58 
L 402.875119 -607.58 
L 406.437383 -607.58 
L 409.999647 -607.58 
L 413.561912 -607.58 
L 417.124176 -607.58 
L 420.68644 -607.58 
L 424.248704 -607.58 
L 427.810969 -607.58 
L 431.373233 -607.58 
L 434.935497 -607.58 
L 438.497761 -607.58 
L 442.060026 -607.58 
L 445.62229 -607.58 
L 449.184554 -607.58 
L 452.746818 -607.58 
L 456.309083 -607.58 
L 459.871347 -607.58 
L 463.433611 -607.58 
L 466.995875 -607.58 
L 470.55814 -607.58 
L 474.120404 -607.58 
L 477.682668 -607.58 
L 481.244932 -607.58 
L 484.807197 -607.58 
L 488.369461 -607.58 
L 491.931725 -607.58 
L 495.493989 -607.58 
L 499.056254 -607.58 
L 502.618518 -607.58 
L 506.180782 -607.58 
L 509.743046 -607.58 
L 513.305311 -607.58 
L 516.867575 -607.58 
L 520.429839 -607.58 
L 523.992103 -607.58 
L 527.554368 -607.58 
L 531.116632 -607.58 
L 534.678896 -607.58 
L 538.24116 -607.58 
L 541.803425 -607.58 
L 545.365689 -607.58 
L 548.927953 -607.58 
L 552.490217 -607.58 
L 556.052482 -607.58 
L 559.614746 -607.58 
L 563.17701 -607.58 
L 566.739274 -607.58 
L 570.301539 -607.58 
L 573.863803 -607.58 
L 577.426067 -607.58 
L 580.988331 -607.58 
L 584.550596 -607.58 
L 588.11286 -607.58 
L 591.675124 -607.58 
L 595.237388 -607.58 
L 598.799653 -607.58 
L 602.361917 -607.58 
L 605.924181 -607.58 
L 609.486445 -607.58 
L 613.04871 -607.58 
L 616.610974 -607.58 
L 620.173238 -607.58 
L 623.735502 -607.58 
L 627.297767 -607.58 
L 630.860031 -607.58 
L 634.422295 -607.58 
L 637.984559 -607.58 
L 641.546824 -607.58 
L 645.109088 -607.58 
L 648.671352 -607.58 
L 652.233616 -607.58 
L 655.795881 -607.58 
L 659.358145 -607.58 
L 662.920409 -607.58 
L 666.482673 -607.58 
L 670.044938 -607.58 
L 673.607202 -607.58 
L 677.169466 -607.58 
L 680.73173 -607.58 
L 684.293995 -607.58 
L 687.856259 -607.58 
L 691.418523 -607.58 
L 694.980787 -607.58 
L 698.543052 -607.58 
L 702.105316 -607.58 
L 705.66758 -607.58 
L 709.229844 -607.58 
L 712.792109 -607.58 
L 716.354373 -607.58 
L 719.916637 -607.58 
L 723.478901 -607.58 
L 727.041166 -607.58 
L 730.60343 -607.58 
L 734.165694 -607.58 
L 737.727958 -607.58 
L 741.290223 -607.58 
L 744.852487 -607.58 
L 748.414751 -607.58 
L 751.977015 -607.58 
L 755.53928 -607.58 
L 759.101544 -607.58 
L 762.663808 -607.58 
L 766.226072 -607.58 
L 769.788337 -607.58 
L 773.350601 -607.58 
L 776.912865 -607.58 
L 780.475129 -607.58 
L 780.475129 -607.676986 
L 780.475129 -607.676986 
L 776.912865 -607.726461 
L 773.350601 -607.797725 
L 769.788337 -607.89864 
L 766.226072 -608.039133 
L 762.663808 -608.231423 
L 759.101544 -608.49016 
L 755.53928 -608.832415 
L 751.977015 -609.277474 
L 748.414751 -609.846387 
L 744.852487 -610.561232 
L 741.290223 -611.444087 
L 737.727958 -612.515712 
L 734.165694 -613.793999 
L 730.60343 -615.292278 
L 727.041166 -617.017599 
L 723.478901 -618.969143 
L 719.916637 -621.136943 
L 716.354373 -623.501072 
L 712.792109 -626.031461 
L 709.229844 -628.688429 
L 705.66758 -631.423995 
L 702.105316 -634.183917 
L 698.543052 -636.910363 
L 694.980787 -639.545016 
L 691.418523 -642.032382 
L 687.856259 -644.323025 
L 684.293995 -646.376431 
L 680.73173 -648.163282 
L 677.169466 -649.666912 
L 673.607202 -650.88385 
L 670.044938 -651.823431 
L 666.482673 -652.506526 
L 662.920409 -652.963574 
L 659.358145 -653.232111 
L 655.795881 -653.354055 
L 652.233616 -653.373004 
L 648.671352 -653.331768 
L 645.109088 -653.270318 
L 641.546824 -653.224257 
L 637.984559 -653.223859 
L 634.422295 -653.293646 
L 630.860031 -653.452424 
L 627.297767 -653.713658 
L 623.735502 -654.086063 
L 620.173238 -654.574272 
L 616.610974 -655.179497 
L 613.04871 -655.900099 
L 609.486445 -656.732028 
L 605.924181 -657.669157 
L 602.361917 -658.703509 
L 598.799653 -659.825449 
L 595.237388 -661.023866 
L 591.675124 -662.286414 
L 588.11286 -663.599813 
L 584.550596 -664.950245 
L 580.988331 -666.323814 
L 577.426067 -667.707042 
L 573.863803 -669.087355 
L 570.301539 -670.453504 
L 566.739274 -671.795878 
L 563.17701 -673.106651 
L 559.614746 -674.37976 
L 556.052482 -675.610691 
L 552.490217 -676.796121 
L 548.927953 -677.933425 
L 545.365689 -679.020143 
L 541.803425 -680.053441 
L 538.24116 -681.029667 
L 534.678896 -681.944043 
L 531.116632 -682.790551 
L 527.554368 -683.562033 
L 523.992103 -684.250523 
L 520.429839 -684.847759 
L 516.867575 -685.345852 
L 513.305311 -685.738041 
L 509.743046 -686.019443 
L 506.180782 -686.187729 
L 502.618518 -686.243649 
L 499.056254 -686.19133 
L 495.493989 -686.038317 
L 491.931725 -685.795332 
L 488.369461 -685.475768 
L 484.807197 -685.09495 
L 481.244932 -684.669226 
L 477.682668 -684.214985 
L 474.120404 -683.74766 
L 470.55814 -683.280831 
L 466.995875 -682.825494 
L 463.433611 -682.389547 
L 459.871347 -681.977543 
L 456.309083 -681.590696 
L 452.746818 -681.227151 
L 449.184554 -680.882452 
L 445.62229 -680.550179 
L 442.060026 -680.222679 
L 438.497761 -679.89184 
L 434.935497 -679.549837 
L 431.373233 -679.189808 
L 427.810969 -678.806414 
L 424.248704 -678.396239 
L 420.68644 -677.958021 
L 417.124176 -677.492682 
L 413.561912 -677.003176 
L 409.999647 -676.494147 
L 406.437383 -675.971444 
L 402.875119 -675.441525 
L 399.312855 -674.910815 
L 395.75059 -674.385073 
L 392.188326 -673.86886 
L 388.626062 -673.365149 
L 385.063798 -672.875131 
L 381.501533 -672.398255 
L 377.939269 -671.932466 
L 374.377005 -671.474643 
L 370.814741 -671.021144 
L 367.252476 -670.568402 
L 363.690212 -670.113468 
L 360.127948 -669.65446 
L 356.565684 -669.19082 
L 353.003419 -668.723392 
L 349.441155 -668.254301 
L 345.878891 -667.786683 
L 342.316627 -667.324307 
L 338.754362 -666.871167 
L 335.192098 -666.431096 
L 331.629834 -666.007456 
L 328.06757 -665.60293 
L 324.505305 -665.219417 
L 320.943041 -664.858013 
L 317.380777 -664.519049 
L 313.818513 -664.202144 
L 310.256248 -663.906231 
L 306.693984 -663.629556 
L 303.13172 -663.369621 
L 299.569456 -663.123104 
L 296.007191 -662.885768 
L 292.444927 -662.652416 
L 288.882663 -662.416909 
L 285.320399 -662.172288 
L 281.758134 -661.911021 
L 278.19587 -661.625363 
L 274.633606 -661.307818 
L 271.071342 -660.951668 
L 267.509077 -660.551529 
L 263.946813 -660.103871 
L 260.384549 -659.607478 
L 256.822285 -659.063776 
L 253.26002 -658.477023 
L 249.697756 -657.854312 
L 246.135492 -657.205395 
L 242.573228 -656.542316 
L 239.010963 -655.878864 
L 235.448699 -655.229852 
L 231.886435 -654.61026 
L 228.324171 -654.034258 
L 224.761907 -653.514144 
L 221.199642 -653.059247 
L 217.637378 -652.674846 
L 214.075114 -652.361166 
L 210.51285 -652.112529 
L 206.950585 -651.916747 
L 203.388321 -651.754848 
L 199.826057 -651.601224 
L 196.263793 -651.424269 
L 192.701528 -651.187563 
L 189.139264 -650.851592 
L 185.577 -650.375963 
L 182.014736 -649.72199 
L 178.452471 -648.855477 
L 174.890207 -647.749475 
L 171.327943 -646.386748 
L 167.765679 -644.761707 
L 164.203414 -642.881559 
L 160.64115 -640.766549 
L 157.078886 -638.449186 
L 153.516622 -635.972521 
L 149.954357 -633.387585 
L 146.392093 -630.750253 
L 142.829829 -628.117795 
L 139.267565 -625.545455 
L 135.7053 -623.083355 
L 132.143036 -620.773976 
L 128.580772 -618.650406 
L 125.018508 -616.73543 
L 121.456243 -615.041447 
L 117.893979 -613.571137 
L 114.331715 -612.318707 
L 110.769451 -611.271524 
L 107.207186 -610.411946 
L 103.644922 -609.719158 
L 100.082658 -609.170853 
L 96.520394 -608.744667 
L 92.958129 -608.419303 
L 89.395865 -608.175313 
L 85.833601 -607.995574 
L 82.271337 -607.865496 
L 78.709072 -607.773006 
L 75.146808 -607.708393 
L 71.584544 -607.66404 
z
" id="m7fdee71866" style="stroke:#87ceeb;"/>
    </defs>
    <g clip-path="url(#p96fde1b15b)">
     <use style="fill:#87ceeb;fill-opacity:0.5;stroke:#87ceeb;" x="0" xlink:href="#m7fdee71866" y="864"/>
    </g>
   </g>
   <g id="PolyCollection_2">
    <defs>
     <path d="M 77.044963 -607.600741 
L 77.044963 -607.58 
L 80.59386 -607.58 
L 84.142757 -607.58 
L 87.691654 -607.58 
L 91.24055 -607.58 
L 94.789447 -607.58 
L 98.338344 -607.58 
L 101.887241 -607.58 
L 105.436137 -607.58 
L 108.985034 -607.58 
L 112.533931 -607.58 
L 116.082828 -607.58 
L 119.631724 -607.58 
L 123.180621 -607.58 
L 126.729518 -607.58 
L 130.278415 -607.58 
L 133.827312 -607.58 
L 137.376208 -607.58 
L 140.925105 -607.58 
L 144.474002 -607.58 
L 148.022899 -607.58 
L 151.571795 -607.58 
L 155.120692 -607.58 
L 158.669589 -607.58 
L 162.218486 -607.58 
L 165.767382 -607.58 
L 169.316279 -607.58 
L 172.865176 -607.58 
L 176.414073 -607.58 
L 179.962969 -607.58 
L 183.511866 -607.58 
L 187.060763 -607.58 
L 190.60966 -607.58 
L 194.158556 -607.58 
L 197.707453 -607.58 
L 201.25635 -607.58 
L 204.805247 -607.58 
L 208.354144 -607.58 
L 211.90304 -607.58 
L 215.451937 -607.58 
L 219.000834 -607.58 
L 222.549731 -607.58 
L 226.098627 -607.58 
L 229.647524 -607.58 
L 233.196421 -607.58 
L 236.745318 -607.58 
L 240.294214 -607.58 
L 243.843111 -607.58 
L 247.392008 -607.58 
L 250.940905 -607.58 
L 254.489801 -607.58 
L 258.038698 -607.58 
L 261.587595 -607.58 
L 265.136492 -607.58 
L 268.685389 -607.58 
L 272.234285 -607.58 
L 275.783182 -607.58 
L 279.332079 -607.58 
L 282.880976 -607.58 
L 286.429872 -607.58 
L 289.978769 -607.58 
L 293.527666 -607.58 
L 297.076563 -607.58 
L 300.625459 -607.58 
L 304.174356 -607.58 
L 307.723253 -607.58 
L 311.27215 -607.58 
L 314.821046 -607.58 
L 318.369943 -607.58 
L 321.91884 -607.58 
L 325.467737 -607.58 
L 329.016633 -607.58 
L 332.56553 -607.58 
L 336.114427 -607.58 
L 339.663324 -607.58 
L 343.212221 -607.58 
L 346.761117 -607.58 
L 350.310014 -607.58 
L 353.858911 -607.58 
L 357.407808 -607.58 
L 360.956704 -607.58 
L 364.505601 -607.58 
L 368.054498 -607.58 
L 371.603395 -607.58 
L 375.152291 -607.58 
L 378.701188 -607.58 
L 382.250085 -607.58 
L 385.798982 -607.58 
L 389.347878 -607.58 
L 392.896775 -607.58 
L 396.445672 -607.58 
L 399.994569 -607.58 
L 403.543466 -607.58 
L 407.092362 -607.58 
L 410.641259 -607.58 
L 414.190156 -607.58 
L 417.739053 -607.58 
L 421.287949 -607.58 
L 424.836846 -607.58 
L 428.385743 -607.58 
L 431.93464 -607.58 
L 435.483536 -607.58 
L 439.032433 -607.58 
L 442.58133 -607.58 
L 446.130227 -607.58 
L 449.679123 -607.58 
L 453.22802 -607.58 
L 456.776917 -607.58 
L 460.325814 -607.58 
L 463.874711 -607.58 
L 467.423607 -607.58 
L 470.972504 -607.58 
L 474.521401 -607.58 
L 478.070298 -607.58 
L 481.619194 -607.58 
L 485.168091 -607.58 
L 488.716988 -607.58 
L 492.265885 -607.58 
L 495.814781 -607.58 
L 499.363678 -607.58 
L 502.912575 -607.58 
L 506.461472 -607.58 
L 510.010368 -607.58 
L 513.559265 -607.58 
L 517.108162 -607.58 
L 520.657059 -607.58 
L 524.205955 -607.58 
L 527.754852 -607.58 
L 531.303749 -607.58 
L 534.852646 -607.58 
L 538.401543 -607.58 
L 541.950439 -607.58 
L 545.499336 -607.58 
L 549.048233 -607.58 
L 552.59713 -607.58 
L 556.146026 -607.58 
L 559.694923 -607.58 
L 563.24382 -607.58 
L 566.792717 -607.58 
L 570.341613 -607.58 
L 573.89051 -607.58 
L 577.439407 -607.58 
L 580.988304 -607.58 
L 584.5372 -607.58 
L 588.086097 -607.58 
L 591.634994 -607.58 
L 595.183891 -607.58 
L 598.732788 -607.58 
L 602.281684 -607.58 
L 605.830581 -607.58 
L 609.379478 -607.58 
L 612.928375 -607.58 
L 616.477271 -607.58 
L 620.026168 -607.58 
L 623.575065 -607.58 
L 627.123962 -607.58 
L 630.672858 -607.58 
L 634.221755 -607.58 
L 637.770652 -607.58 
L 641.319549 -607.58 
L 644.868445 -607.58 
L 648.417342 -607.58 
L 651.966239 -607.58 
L 655.515136 -607.58 
L 659.064032 -607.58 
L 662.612929 -607.58 
L 666.161826 -607.58 
L 669.710723 -607.58 
L 673.25962 -607.58 
L 676.808516 -607.58 
L 680.357413 -607.58 
L 683.90631 -607.58 
L 687.455207 -607.58 
L 691.004103 -607.58 
L 694.553 -607.58 
L 698.101897 -607.58 
L 701.650794 -607.58 
L 705.19969 -607.58 
L 708.748587 -607.58 
L 712.297484 -607.58 
L 715.846381 -607.58 
L 719.395277 -607.58 
L 722.944174 -607.58 
L 726.493071 -607.58 
L 730.041968 -607.58 
L 733.590865 -607.58 
L 737.139761 -607.58 
L 740.688658 -607.58 
L 744.237555 -607.58 
L 747.786452 -607.58 
L 751.335348 -607.58 
L 754.884245 -607.58 
L 758.433142 -607.58 
L 761.982039 -607.58 
L 765.530935 -607.58 
L 769.079832 -607.58 
L 772.628729 -607.58 
L 776.177626 -607.58 
L 779.726522 -607.58 
L 783.275419 -607.58 
L 783.275419 -608.03395 
L 783.275419 -608.03395 
L 779.726522 -608.258845 
L 776.177626 -608.580389 
L 772.628729 -609.032871 
L 769.079832 -609.659554 
L 765.530935 -610.513765 
L 761.982039 -611.659623 
L 758.433142 -613.172215 
L 754.884245 -615.136967 
L 751.335348 -617.648007 
L 747.786452 -620.805312 
L 744.237555 -624.710536 
L 740.688658 -629.461484 
L 737.139761 -635.145382 
L 733.590865 -641.831211 
L 730.041968 -649.561583 
L 726.493071 -658.344757 
L 722.944174 -668.147547 
L 719.395277 -678.889907 
L 715.846381 -690.441946 
L 712.297484 -702.624041 
L 708.748587 -715.21046 
L 705.19969 -727.936653 
L 701.650794 -740.509992 
L 698.101897 -752.623415 
L 694.553 -763.97106 
L 691.004103 -774.264745 
L 687.455207 -783.249969 
L 683.90631 -790.720129 
L 680.357413 -796.527725 
L 676.808516 -800.591625 
L 673.25962 -802.899802 
L 669.710723 -803.507381 
L 666.161826 -802.530281 
L 662.612929 -800.135129 
L 659.064032 -796.52645 
L 655.515136 -791.932326 
L 651.966239 -786.589791 
L 648.417342 -780.731181 
L 644.868445 -774.572437 
L 641.319549 -768.304126 
L 637.770652 -762.085608 
L 634.221755 -756.042423 
L 630.672858 -750.266699 
L 627.123962 -744.820076 
L 623.575065 -739.738508 
L 620.026168 -735.038165 
L 616.477271 -730.721687 
L 612.928375 -726.78407 
L 609.379478 -723.217625 
L 605.830581 -720.015615 
L 602.281684 -717.174332 
L 598.732788 -714.693626 
L 595.183891 -712.575995 
L 591.634994 -710.824546 
L 588.086097 -709.44018 
L 584.5372 -708.418448 
L 580.988304 -707.746496 
L 577.439407 -707.400516 
L 573.89051 -707.344032 
L 570.341613 -707.527267 
L 566.792717 -707.887739 
L 563.24382 -708.352088 
L 559.694923 -708.839045 
L 556.146026 -709.263326 
L 552.59713 -709.54014 
L 549.048233 -709.589935 
L 545.499336 -709.342972 
L 541.950439 -708.743315 
L 538.401543 -707.751886 
L 534.852646 -706.348307 
L 531.303749 -704.531377 
L 527.754852 -702.318155 
L 524.205955 -699.741792 
L 520.657059 -696.848335 
L 517.108162 -693.692851 
L 513.559265 -690.335268 
L 510.010368 -686.836332 
L 506.461472 -683.254019 
L 502.912575 -679.64071 
L 499.363678 -676.041265 
L 495.814781 -672.492079 
L 492.265885 -669.021043 
L 488.716988 -665.648256 
L 485.168091 -662.387297 
L 481.619194 -659.246783 
L 478.070298 -656.231991 
L 474.521401 -653.346331 
L 470.972504 -650.592503 
L 467.423607 -647.973256 
L 463.874711 -645.491701 
L 460.325814 -643.151222 
L 456.776917 -640.955042 
L 453.22802 -638.905563 
L 449.679123 -637.003604 
L 446.130227 -635.24766 
L 442.58133 -633.633311 
L 439.032433 -632.152871 
L 435.483536 -630.795349 
L 431.93464 -629.54675 
L 428.385743 -628.390708 
L 424.836846 -627.309399 
L 421.287949 -626.284648 
L 417.739053 -625.299116 
L 414.190156 -624.337445 
L 410.641259 -623.387234 
L 407.092362 -622.439748 
L 403.543466 -621.490267 
L 399.994569 -620.538075 
L 396.445672 -619.586073 
L 392.896775 -618.640098 
L 389.347878 -617.70802 
L 385.798982 -616.798754 
L 382.250085 -615.921285 
L 378.701188 -615.083815 
L 375.152291 -614.293117 
L 371.603395 -613.554137 
L 368.054498 -612.869845 
L 364.505601 -612.241314 
L 360.956704 -611.667987 
L 357.407808 -611.148036 
L 353.858911 -610.678786 
L 350.310014 -610.257104 
L 346.761117 -609.879742 
L 343.212221 -609.543581 
L 339.663324 -609.245791 
L 336.114427 -608.983898 
L 332.56553 -608.755792 
L 329.016633 -608.559685 
L 325.467737 -608.394059 
L 321.91884 -608.257602 
L 318.369943 -608.149162 
L 314.821046 -608.067712 
L 311.27215 -608.01232 
L 307.723253 -607.982121 
L 304.174356 -607.976282 
L 300.625459 -607.993944 
L 297.076563 -608.034139 
L 293.527666 -608.095691 
L 289.978769 -608.177093 
L 286.429872 -608.276386 
L 282.880976 -608.391048 
L 279.332079 -608.517918 
L 275.783182 -608.653173 
L 272.234285 -608.792373 
L 268.685389 -608.930583 
L 265.136492 -609.062571 
L 261.587595 -609.183078 
L 258.038698 -609.287128 
L 254.489801 -609.370374 
L 250.940905 -609.429418 
L 247.392008 -609.4621 
L 243.843111 -609.467703 
L 240.294214 -609.44707 
L 236.745318 -609.402595 
L 233.196421 -609.338108 
L 229.647524 -609.258644 
L 226.098627 -609.17012 
L 222.549731 -609.078953 
L 219.000834 -608.991637 
L 215.451937 -608.914312 
L 211.90304 -608.852368 
L 208.354144 -608.810094 
L 204.805247 -608.790404 
L 201.25635 -608.794653 
L 197.707453 -608.822549 
L 194.158556 -608.872171 
L 190.60966 -608.940094 
L 187.060763 -609.021605 
L 183.511866 -609.111005 
L 179.962969 -609.201981 
L 176.414073 -609.288016 
L 172.865176 -609.362818 
L 169.316279 -609.420736 
L 165.767382 -609.457119 
L 162.218486 -609.468611 
L 158.669589 -609.453337 
L 155.120692 -609.410978 
L 151.571795 -609.342729 
L 148.022899 -609.251144 
L 144.474002 -609.139884 
L 140.925105 -609.013406 
L 137.376208 -608.876609 
L 133.827312 -608.734482 
L 130.278415 -608.591782 
L 126.729518 -608.452764 
L 123.180621 -608.320984 
L 119.631724 -608.199182 
L 116.082828 -608.089238 
L 112.533931 -607.992205 
L 108.985034 -607.908394 
L 105.436137 -607.837493 
L 101.887241 -607.778711 
L 98.338344 -607.730926 
L 94.789447 -607.692822 
L 91.24055 -607.663006 
L 87.691654 -607.640105 
L 84.142757 -607.622835 
L 80.59386 -607.610045 
L 77.044963 -607.600741 
z
" id="m4105d47af0" style="stroke:#dc143c;"/>
    </defs>
    <g clip-path="url(#p96fde1b15b)">
     <use style="fill:#dc143c;fill-opacity:0.5;stroke:#dc143c;" x="0" xlink:href="#m4105d47af0" y="864"/>
    </g>
   </g>
   <g id="patch_3">
    <path d="M 36 256.42 
L 36 50.69625 
" style="fill:none;stroke:#262626;stroke-linecap:square;stroke-linejoin:miter;stroke-width:1.25;"/>
   </g>
   <g id="patch_4">
    <path d="M 818.859963 256.42 
L 818.859963 50.69625 
" style="fill:none;stroke:#262626;stroke-linecap:square;stroke-linejoin:miter;stroke-width:1.25;"/>
   </g>
   <g id="patch_5">
    <path d="M 36 256.42 
L 818.859963 256.42 
" style="fill:none;stroke:#262626;stroke-linecap:square;stroke-linejoin:miter;stroke-width:1.25;"/>
   </g>
   <g id="patch_6">
    <path d="M 36 50.69625 
L 818.859963 50.69625 
" style="fill:none;stroke:#262626;stroke-linecap:square;stroke-linejoin:miter;stroke-width:1.25;"/>
   </g>
   <g id="text_7">
    <!-- How Age Impacts on Experiencing Stroke? -->
    <g style="fill:#262626;" transform="translate(313.707481 44.69625)scale(0.12 -0.12)">
     <defs>
      <path d="M 513 0 
L 513 4581 
L 1119 4581 
L 1119 2700 
L 3500 2700 
L 3500 4581 
L 4106 4581 
L 4106 0 
L 3500 0 
L 3500 2159 
L 1119 2159 
L 1119 0 
L 513 0 
z
" id="ArialMT-48" transform="scale(0.015625)"/>
      <path d="M 213 1659 
Q 213 2581 725 3025 
Q 1153 3394 1769 3394 
Q 2453 3394 2887 2945 
Q 3322 2497 3322 1706 
Q 3322 1066 3130 698 
Q 2938 331 2570 128 
Q 2203 -75 1769 -75 
Q 1072 -75 642 372 
Q 213 819 213 1659 
z
M 791 1659 
Q 791 1022 1069 705 
Q 1347 388 1769 388 
Q 2188 388 2466 706 
Q 2744 1025 2744 1678 
Q 2744 2294 2464 2611 
Q 2184 2928 1769 2928 
Q 1347 2928 1069 2612 
Q 791 2297 791 1659 
z
" id="ArialMT-6f" transform="scale(0.015625)"/>
      <path d="M 1034 0 
L 19 3319 
L 600 3319 
L 1128 1403 
L 1325 691 
Q 1338 744 1497 1375 
L 2025 3319 
L 2603 3319 
L 3100 1394 
L 3266 759 
L 3456 1400 
L 4025 3319 
L 4572 3319 
L 3534 0 
L 2950 0 
L 2422 1988 
L 2294 2553 
L 1622 0 
L 1034 0 
z
" id="ArialMT-77" transform="scale(0.015625)"/>
      <path id="ArialMT-20" transform="scale(0.015625)"/>
      <path d="M -9 0 
L 1750 4581 
L 2403 4581 
L 4278 0 
L 3588 0 
L 3053 1388 
L 1138 1388 
L 634 0 
L -9 0 
z
M 1313 1881 
L 2866 1881 
L 2388 3150 
Q 2169 3728 2063 4100 
Q 1975 3659 1816 3225 
L 1313 1881 
z
" id="ArialMT-41" transform="scale(0.015625)"/>
      <path d="M 319 -275 
L 866 -356 
Q 900 -609 1056 -725 
Q 1266 -881 1628 -881 
Q 2019 -881 2231 -725 
Q 2444 -569 2519 -288 
Q 2563 -116 2559 434 
Q 2191 0 1641 0 
Q 956 0 581 494 
Q 206 988 206 1678 
Q 206 2153 378 2554 
Q 550 2956 876 3175 
Q 1203 3394 1644 3394 
Q 2231 3394 2613 2919 
L 2613 3319 
L 3131 3319 
L 3131 450 
Q 3131 -325 2973 -648 
Q 2816 -972 2473 -1159 
Q 2131 -1347 1631 -1347 
Q 1038 -1347 672 -1080 
Q 306 -813 319 -275 
z
M 784 1719 
Q 784 1066 1043 766 
Q 1303 466 1694 466 
Q 2081 466 2343 764 
Q 2606 1063 2606 1700 
Q 2606 2309 2336 2618 
Q 2066 2928 1684 2928 
Q 1309 2928 1046 2623 
Q 784 2319 784 1719 
z
" id="ArialMT-67" transform="scale(0.015625)"/>
      <path d="M 2694 1069 
L 3275 997 
Q 3138 488 2766 206 
Q 2394 -75 1816 -75 
Q 1088 -75 661 373 
Q 234 822 234 1631 
Q 234 2469 665 2931 
Q 1097 3394 1784 3394 
Q 2450 3394 2872 2941 
Q 3294 2488 3294 1666 
Q 3294 1616 3291 1516 
L 816 1516 
Q 847 969 1125 678 
Q 1403 388 1819 388 
Q 2128 388 2347 550 
Q 2566 713 2694 1069 
z
M 847 1978 
L 2700 1978 
Q 2663 2397 2488 2606 
Q 2219 2931 1791 2931 
Q 1403 2931 1139 2672 
Q 875 2413 847 1978 
z
" id="ArialMT-65" transform="scale(0.015625)"/>
      <path d="M 597 0 
L 597 4581 
L 1203 4581 
L 1203 0 
L 597 0 
z
" id="ArialMT-49" transform="scale(0.015625)"/>
      <path d="M 422 0 
L 422 3319 
L 925 3319 
L 925 2853 
Q 1081 3097 1340 3245 
Q 1600 3394 1931 3394 
Q 2300 3394 2536 3241 
Q 2772 3088 2869 2813 
Q 3263 3394 3894 3394 
Q 4388 3394 4653 3120 
Q 4919 2847 4919 2278 
L 4919 0 
L 4359 0 
L 4359 2091 
Q 4359 2428 4304 2576 
Q 4250 2725 4106 2815 
Q 3963 2906 3769 2906 
Q 3419 2906 3187 2673 
Q 2956 2441 2956 1928 
L 2956 0 
L 2394 0 
L 2394 2156 
Q 2394 2531 2256 2718 
Q 2119 2906 1806 2906 
Q 1569 2906 1367 2781 
Q 1166 2656 1075 2415 
Q 984 2175 984 1722 
L 984 0 
L 422 0 
z
" id="ArialMT-6d" transform="scale(0.015625)"/>
      <path d="M 422 -1272 
L 422 3319 
L 934 3319 
L 934 2888 
Q 1116 3141 1344 3267 
Q 1572 3394 1897 3394 
Q 2322 3394 2647 3175 
Q 2972 2956 3137 2557 
Q 3303 2159 3303 1684 
Q 3303 1175 3120 767 
Q 2938 359 2589 142 
Q 2241 -75 1856 -75 
Q 1575 -75 1351 44 
Q 1128 163 984 344 
L 984 -1272 
L 422 -1272 
z
M 931 1641 
Q 931 1000 1190 694 
Q 1450 388 1819 388 
Q 2194 388 2461 705 
Q 2728 1022 2728 1688 
Q 2728 2322 2467 2637 
Q 2206 2953 1844 2953 
Q 1484 2953 1207 2617 
Q 931 2281 931 1641 
z
" id="ArialMT-70" transform="scale(0.015625)"/>
      <path d="M 2588 409 
Q 2275 144 1986 34 
Q 1697 -75 1366 -75 
Q 819 -75 525 192 
Q 231 459 231 875 
Q 231 1119 342 1320 
Q 453 1522 633 1644 
Q 813 1766 1038 1828 
Q 1203 1872 1538 1913 
Q 2219 1994 2541 2106 
Q 2544 2222 2544 2253 
Q 2544 2597 2384 2738 
Q 2169 2928 1744 2928 
Q 1347 2928 1158 2789 
Q 969 2650 878 2297 
L 328 2372 
Q 403 2725 575 2942 
Q 747 3159 1072 3276 
Q 1397 3394 1825 3394 
Q 2250 3394 2515 3294 
Q 2781 3194 2906 3042 
Q 3031 2891 3081 2659 
Q 3109 2516 3109 2141 
L 3109 1391 
Q 3109 606 3145 398 
Q 3181 191 3288 0 
L 2700 0 
Q 2613 175 2588 409 
z
M 2541 1666 
Q 2234 1541 1622 1453 
Q 1275 1403 1131 1340 
Q 988 1278 909 1158 
Q 831 1038 831 891 
Q 831 666 1001 516 
Q 1172 366 1500 366 
Q 1825 366 2078 508 
Q 2331 650 2450 897 
Q 2541 1088 2541 1459 
L 2541 1666 
z
" id="ArialMT-61" transform="scale(0.015625)"/>
      <path d="M 2588 1216 
L 3141 1144 
Q 3050 572 2676 248 
Q 2303 -75 1759 -75 
Q 1078 -75 664 370 
Q 250 816 250 1647 
Q 250 2184 428 2587 
Q 606 2991 970 3192 
Q 1334 3394 1763 3394 
Q 2303 3394 2647 3120 
Q 2991 2847 3088 2344 
L 2541 2259 
Q 2463 2594 2264 2762 
Q 2066 2931 1784 2931 
Q 1359 2931 1093 2626 
Q 828 2322 828 1663 
Q 828 994 1084 691 
Q 1341 388 1753 388 
Q 2084 388 2306 591 
Q 2528 794 2588 1216 
z
" id="ArialMT-63" transform="scale(0.015625)"/>
      <path d="M 1650 503 
L 1731 6 
Q 1494 -44 1306 -44 
Q 1000 -44 831 53 
Q 663 150 594 308 
Q 525 466 525 972 
L 525 2881 
L 113 2881 
L 113 3319 
L 525 3319 
L 525 4141 
L 1084 4478 
L 1084 3319 
L 1650 3319 
L 1650 2881 
L 1084 2881 
L 1084 941 
Q 1084 700 1114 631 
Q 1144 563 1211 522 
Q 1278 481 1403 481 
Q 1497 481 1650 503 
z
" id="ArialMT-74" transform="scale(0.015625)"/>
      <path d="M 197 991 
L 753 1078 
Q 800 744 1014 566 
Q 1228 388 1613 388 
Q 2000 388 2187 545 
Q 2375 703 2375 916 
Q 2375 1106 2209 1216 
Q 2094 1291 1634 1406 
Q 1016 1563 777 1677 
Q 538 1791 414 1992 
Q 291 2194 291 2438 
Q 291 2659 392 2848 
Q 494 3038 669 3163 
Q 800 3259 1026 3326 
Q 1253 3394 1513 3394 
Q 1903 3394 2198 3281 
Q 2494 3169 2634 2976 
Q 2775 2784 2828 2463 
L 2278 2388 
Q 2241 2644 2061 2787 
Q 1881 2931 1553 2931 
Q 1166 2931 1000 2803 
Q 834 2675 834 2503 
Q 834 2394 903 2306 
Q 972 2216 1119 2156 
Q 1203 2125 1616 2013 
Q 2213 1853 2448 1751 
Q 2684 1650 2818 1456 
Q 2953 1263 2953 975 
Q 2953 694 2789 445 
Q 2625 197 2315 61 
Q 2006 -75 1616 -75 
Q 969 -75 630 194 
Q 291 463 197 991 
z
" id="ArialMT-73" transform="scale(0.015625)"/>
      <path d="M 422 0 
L 422 3319 
L 928 3319 
L 928 2847 
Q 1294 3394 1984 3394 
Q 2284 3394 2536 3286 
Q 2788 3178 2913 3003 
Q 3038 2828 3088 2588 
Q 3119 2431 3119 2041 
L 3119 0 
L 2556 0 
L 2556 2019 
Q 2556 2363 2490 2533 
Q 2425 2703 2258 2804 
Q 2091 2906 1866 2906 
Q 1506 2906 1245 2678 
Q 984 2450 984 1813 
L 984 0 
L 422 0 
z
" id="ArialMT-6e" transform="scale(0.015625)"/>
      <path d="M 506 0 
L 506 4581 
L 3819 4581 
L 3819 4041 
L 1113 4041 
L 1113 2638 
L 3647 2638 
L 3647 2100 
L 1113 2100 
L 1113 541 
L 3925 541 
L 3925 0 
L 506 0 
z
" id="ArialMT-45" transform="scale(0.015625)"/>
      <path d="M 47 0 
L 1259 1725 
L 138 3319 
L 841 3319 
L 1350 2541 
Q 1494 2319 1581 2169 
Q 1719 2375 1834 2534 
L 2394 3319 
L 3066 3319 
L 1919 1756 
L 3153 0 
L 2463 0 
L 1781 1031 
L 1600 1309 
L 728 0 
L 47 0 
z
" id="ArialMT-78" transform="scale(0.015625)"/>
      <path d="M 416 0 
L 416 3319 
L 922 3319 
L 922 2816 
Q 1116 3169 1280 3281 
Q 1444 3394 1641 3394 
Q 1925 3394 2219 3213 
L 2025 2691 
Q 1819 2813 1613 2813 
Q 1428 2813 1281 2702 
Q 1134 2591 1072 2394 
Q 978 2094 978 1738 
L 978 0 
L 416 0 
z
" id="ArialMT-72" transform="scale(0.015625)"/>
      <path d="M 425 3934 
L 425 4581 
L 988 4581 
L 988 3934 
L 425 3934 
z
M 425 0 
L 425 3319 
L 988 3319 
L 988 0 
L 425 0 
z
" id="ArialMT-69" transform="scale(0.015625)"/>
      <path d="M 288 1472 
L 859 1522 
Q 900 1178 1048 958 
Q 1197 738 1509 602 
Q 1822 466 2213 466 
Q 2559 466 2825 569 
Q 3091 672 3220 851 
Q 3350 1031 3350 1244 
Q 3350 1459 3225 1620 
Q 3100 1781 2813 1891 
Q 2628 1963 1997 2114 
Q 1366 2266 1113 2400 
Q 784 2572 623 2826 
Q 463 3081 463 3397 
Q 463 3744 659 4045 
Q 856 4347 1234 4503 
Q 1613 4659 2075 4659 
Q 2584 4659 2973 4495 
Q 3363 4331 3572 4012 
Q 3781 3694 3797 3291 
L 3216 3247 
Q 3169 3681 2898 3903 
Q 2628 4125 2100 4125 
Q 1550 4125 1298 3923 
Q 1047 3722 1047 3438 
Q 1047 3191 1225 3031 
Q 1400 2872 2139 2705 
Q 2878 2538 3153 2413 
Q 3553 2228 3743 1945 
Q 3934 1663 3934 1294 
Q 3934 928 3725 604 
Q 3516 281 3123 101 
Q 2731 -78 2241 -78 
Q 1619 -78 1198 103 
Q 778 284 539 648 
Q 300 1013 288 1472 
z
" id="ArialMT-53" transform="scale(0.015625)"/>
      <path d="M 425 0 
L 425 4581 
L 988 4581 
L 988 1969 
L 2319 3319 
L 3047 3319 
L 1778 2088 
L 3175 0 
L 2481 0 
L 1384 1697 
L 988 1316 
L 988 0 
L 425 0 
z
" id="ArialMT-6b" transform="scale(0.015625)"/>
      <path d="M 1475 1128 
Q 1472 1241 1472 1297 
Q 1472 1628 1566 1869 
Q 1634 2050 1788 2234 
Q 1900 2369 2192 2626 
Q 2484 2884 2571 3037 
Q 2659 3191 2659 3372 
Q 2659 3700 2403 3948 
Q 2147 4197 1775 4197 
Q 1416 4197 1175 3972 
Q 934 3747 859 3269 
L 281 3338 
Q 359 3978 745 4318 
Q 1131 4659 1766 4659 
Q 2438 4659 2838 4293 
Q 3238 3928 3238 3409 
Q 3238 3109 3097 2856 
Q 2956 2603 2547 2241 
Q 2272 1997 2187 1881 
Q 2103 1766 2062 1616 
Q 2022 1466 2016 1128 
L 1475 1128 
z
M 1441 0 
L 1441 641 
L 2081 641 
L 2081 0 
L 1441 0 
z
" id="ArialMT-3f" transform="scale(0.015625)"/>
     </defs>
     <use xlink:href="#ArialMT-48"/>
     <use x="72.216797" xlink:href="#ArialMT-6f"/>
     <use x="127.832031" xlink:href="#ArialMT-77"/>
     <use x="200.048828" xlink:href="#ArialMT-20"/>
     <use x="222.332031" xlink:href="#ArialMT-41"/>
     <use x="289.03125" xlink:href="#ArialMT-67"/>
     <use x="344.646484" xlink:href="#ArialMT-65"/>
     <use x="400.261719" xlink:href="#ArialMT-20"/>
     <use x="428.044922" xlink:href="#ArialMT-49"/>
     <use x="455.828125" xlink:href="#ArialMT-6d"/>
     <use x="539.128906" xlink:href="#ArialMT-70"/>
     <use x="594.744141" xlink:href="#ArialMT-61"/>
     <use x="650.359375" xlink:href="#ArialMT-63"/>
     <use x="700.359375" xlink:href="#ArialMT-74"/>
     <use x="728.142578" xlink:href="#ArialMT-73"/>
     <use x="778.142578" xlink:href="#ArialMT-20"/>
     <use x="805.925781" xlink:href="#ArialMT-6f"/>
     <use x="861.541016" xlink:href="#ArialMT-6e"/>
     <use x="917.15625" xlink:href="#ArialMT-20"/>
     <use x="944.939453" xlink:href="#ArialMT-45"/>
     <use x="1011.638672" xlink:href="#ArialMT-78"/>
     <use x="1061.638672" xlink:href="#ArialMT-70"/>
     <use x="1117.253906" xlink:href="#ArialMT-65"/>
     <use x="1172.869141" xlink:href="#ArialMT-72"/>
     <use x="1206.169922" xlink:href="#ArialMT-69"/>
     <use x="1228.386719" xlink:href="#ArialMT-65"/>
     <use x="1284.001953" xlink:href="#ArialMT-6e"/>
     <use x="1339.617188" xlink:href="#ArialMT-63"/>
     <use x="1389.617188" xlink:href="#ArialMT-69"/>
     <use x="1411.833984" xlink:href="#ArialMT-6e"/>
     <use x="1467.449219" xlink:href="#ArialMT-67"/>
     <use x="1523.064453" xlink:href="#ArialMT-20"/>
     <use x="1550.847656" xlink:href="#ArialMT-53"/>
     <use x="1617.546875" xlink:href="#ArialMT-74"/>
     <use x="1645.330078" xlink:href="#ArialMT-72"/>
     <use x="1678.630859" xlink:href="#ArialMT-6f"/>
     <use x="1734.246094" xlink:href="#ArialMT-6b"/>
     <use x="1784.246094" xlink:href="#ArialMT-65"/>
     <use x="1839.861328" xlink:href="#ArialMT-3f"/>
    </g>
   </g>
   <g id="legend_1">
    <g id="patch_7">
     <path d="M 758.009338 107.090313 
L 811.159963 107.090313 
Q 813.359963 107.090313 813.359963 104.890313 
L 813.359963 58.39625 
Q 813.359963 56.19625 811.159963 56.19625 
L 758.009338 56.19625 
Q 755.809338 56.19625 755.809338 58.39625 
L 755.809338 104.890313 
Q 755.809338 107.090313 758.009338 107.090313 
z
" style="fill:#ffffff;opacity:0.8;stroke:#cccccc;stroke-linejoin:miter;"/>
    </g>
    <g id="text_8">
     <!-- Stroke -->
     <g style="fill:#262626;" transform="translate(767.24465 69.185625)scale(0.12 -0.12)">
      <use xlink:href="#ArialMT-53"/>
      <use x="66.699219" xlink:href="#ArialMT-74"/>
      <use x="94.482422" xlink:href="#ArialMT-72"/>
      <use x="127.783203" xlink:href="#ArialMT-6f"/>
      <use x="183.398438" xlink:href="#ArialMT-6b"/>
      <use x="233.398438" xlink:href="#ArialMT-65"/>
     </g>
    </g>
    <g id="patch_8">
     <path d="M 760.209338 84.944219 
L 782.209338 84.944219 
L 782.209338 77.244219 
L 760.209338 77.244219 
z
" style="fill:#87ceeb;fill-opacity:0.5;stroke:#87ceeb;stroke-linejoin:miter;"/>
    </g>
    <g id="text_9">
     <!-- No -->
     <g style="fill:#262626;" transform="translate(791.009338 84.944219)scale(0.11 -0.11)">
      <defs>
       <path d="M 488 0 
L 488 4581 
L 1109 4581 
L 3516 984 
L 3516 4581 
L 4097 4581 
L 4097 0 
L 3475 0 
L 1069 3600 
L 1069 0 
L 488 0 
z
" id="ArialMT-4e" transform="scale(0.015625)"/>
      </defs>
      <use xlink:href="#ArialMT-4e"/>
      <use x="72.216797" xlink:href="#ArialMT-6f"/>
     </g>
    </g>
    <g id="patch_9">
     <path d="M 760.209338 100.504063 
L 782.209338 100.504063 
L 782.209338 92.804063 
L 760.209338 92.804063 
z
" style="fill:#dc143c;fill-opacity:0.5;stroke:#dc143c;stroke-linejoin:miter;"/>
    </g>
    <g id="text_10">
     <!-- Yes -->
     <g style="fill:#262626;" transform="translate(791.009338 100.504063)scale(0.11 -0.11)">
      <defs>
       <path d="M 1784 0 
L 1784 1941 
L 19 4581 
L 756 4581 
L 1659 3200 
Q 1909 2813 2125 2425 
Q 2331 2784 2625 3234 
L 3513 4581 
L 4219 4581 
L 2391 1941 
L 2391 0 
L 1784 0 
z
" id="ArialMT-59" transform="scale(0.015625)"/>
      </defs>
      <use xlink:href="#ArialMT-59"/>
      <use x="57.574219" xlink:href="#ArialMT-65"/>
      <use x="113.189453" xlink:href="#ArialMT-73"/>
     </g>
    </g>
   </g>
  </g>
  <g id="axes_2">
   <g id="patch_10">
    <path d="M 36 532.42 
L 818.859963 532.42 
L 818.859963 326.69625 
L 36 326.69625 
z
" style="fill:#ffffff;"/>
   </g>
   <g id="matplotlib.axis_3">
    <g id="xtick_7">
     <g id="text_11">
      <!-- 0 -->
      <g style="fill:#262626;" transform="translate(80.097502 549.793594)scale(0.11 -0.11)">
       <use xlink:href="#ArialMT-30"/>
      </g>
     </g>
    </g>
    <g id="xtick_8">
     <g id="text_12">
      <!-- 50 -->
      <g style="fill:#262626;" transform="translate(182.048584 549.793594)scale(0.11 -0.11)">
       <defs>
        <path d="M 266 1200 
L 856 1250 
Q 922 819 1161 601 
Q 1400 384 1738 384 
Q 2144 384 2425 690 
Q 2706 997 2706 1503 
Q 2706 1984 2436 2262 
Q 2166 2541 1728 2541 
Q 1456 2541 1237 2417 
Q 1019 2294 894 2097 
L 366 2166 
L 809 4519 
L 3088 4519 
L 3088 3981 
L 1259 3981 
L 1013 2750 
Q 1425 3038 1878 3038 
Q 2478 3038 2890 2622 
Q 3303 2206 3303 1553 
Q 3303 931 2941 478 
Q 2500 -78 1738 -78 
Q 1113 -78 717 272 
Q 322 622 266 1200 
z
" id="ArialMT-35" transform="scale(0.015625)"/>
       </defs>
       <use xlink:href="#ArialMT-35"/>
       <use x="55.615234" xlink:href="#ArialMT-30"/>
      </g>
     </g>
    </g>
    <g id="xtick_9">
     <g id="text_13">
      <!-- 100 -->
      <g style="fill:#262626;" transform="translate(283.999665 549.793594)scale(0.11 -0.11)">
       <use xlink:href="#ArialMT-31"/>
       <use x="55.615234" xlink:href="#ArialMT-30"/>
       <use x="111.230469" xlink:href="#ArialMT-30"/>
      </g>
     </g>
    </g>
    <g id="xtick_10">
     <g id="text_14">
      <!-- 150 -->
      <g style="fill:#262626;" transform="translate(389.009262 549.793594)scale(0.11 -0.11)">
       <use xlink:href="#ArialMT-31"/>
       <use x="55.615234" xlink:href="#ArialMT-35"/>
       <use x="111.230469" xlink:href="#ArialMT-30"/>
      </g>
     </g>
    </g>
    <g id="xtick_11">
     <g id="text_15">
      <!-- 200 -->
      <g style="fill:#262626;" transform="translate(494.018859 549.793594)scale(0.11 -0.11)">
       <use xlink:href="#ArialMT-32"/>
       <use x="55.615234" xlink:href="#ArialMT-30"/>
       <use x="111.230469" xlink:href="#ArialMT-30"/>
      </g>
     </g>
    </g>
    <g id="xtick_12">
     <g id="text_16">
      <!-- 250 -->
      <g style="fill:#262626;" transform="translate(599.028456 549.793594)scale(0.11 -0.11)">
       <use xlink:href="#ArialMT-32"/>
       <use x="55.615234" xlink:href="#ArialMT-35"/>
       <use x="111.230469" xlink:href="#ArialMT-30"/>
      </g>
     </g>
    </g>
    <g id="xtick_13">
     <g id="text_17">
      <!-- 300 -->
      <g style="fill:#262626;" transform="translate(704.038053 549.793594)scale(0.11 -0.11)">
       <defs>
        <path d="M 269 1209 
L 831 1284 
Q 928 806 1161 595 
Q 1394 384 1728 384 
Q 2125 384 2398 659 
Q 2672 934 2672 1341 
Q 2672 1728 2419 1979 
Q 2166 2231 1775 2231 
Q 1616 2231 1378 2169 
L 1441 2663 
Q 1497 2656 1531 2656 
Q 1891 2656 2178 2843 
Q 2466 3031 2466 3422 
Q 2466 3731 2256 3934 
Q 2047 4138 1716 4138 
Q 1388 4138 1169 3931 
Q 950 3725 888 3313 
L 325 3413 
Q 428 3978 793 4289 
Q 1159 4600 1703 4600 
Q 2078 4600 2393 4439 
Q 2709 4278 2876 4000 
Q 3044 3722 3044 3409 
Q 3044 3113 2884 2869 
Q 2725 2625 2413 2481 
Q 2819 2388 3044 2092 
Q 3269 1797 3269 1353 
Q 3269 753 2831 336 
Q 2394 -81 1725 -81 
Q 1122 -81 723 278 
Q 325 638 269 1209 
z
" id="ArialMT-33" transform="scale(0.015625)"/>
       </defs>
       <use xlink:href="#ArialMT-33"/>
       <use x="55.615234" xlink:href="#ArialMT-30"/>
       <use x="111.230469" xlink:href="#ArialMT-30"/>
      </g>
     </g>
    </g>
    <g id="xtick_14">
     <g id="text_18">
      <!-- 350 -->
      <g style="fill:#262626;" transform="translate(809.047649 549.793594)scale(0.11 -0.11)">
       <use xlink:href="#ArialMT-33"/>
       <use x="55.615234" xlink:href="#ArialMT-35"/>
       <use x="111.230469" xlink:href="#ArialMT-30"/>
      </g>
     </g>
    </g>
   </g>
   <g id="matplotlib.axis_4"/>
   <g id="PolyCollection_3">
    <defs>
     <path d="M 148.336852 -331.724997 
L 148.336852 -331.58 
L 151.089356 -331.58 
L 153.84186 -331.58 
L 156.594365 -331.58 
L 159.346869 -331.58 
L 162.099373 -331.58 
L 164.851877 -331.58 
L 167.604381 -331.58 
L 170.356885 -331.58 
L 173.109389 -331.58 
L 175.861893 -331.58 
L 178.614397 -331.58 
L 181.366901 -331.58 
L 184.119405 -331.58 
L 186.871909 -331.58 
L 189.624413 -331.58 
L 192.376917 -331.58 
L 195.129421 -331.58 
L 197.881925 -331.58 
L 200.634429 -331.58 
L 203.386933 -331.58 
L 206.139437 -331.58 
L 208.891941 -331.58 
L 211.644445 -331.58 
L 214.396949 -331.58 
L 217.149453 -331.58 
L 219.901957 -331.58 
L 222.654462 -331.58 
L 225.406966 -331.58 
L 228.15947 -331.58 
L 230.911974 -331.58 
L 233.664478 -331.58 
L 236.416982 -331.58 
L 239.169486 -331.58 
L 241.92199 -331.58 
L 244.674494 -331.58 
L 247.426998 -331.58 
L 250.179502 -331.58 
L 252.932006 -331.58 
L 255.68451 -331.58 
L 258.437014 -331.58 
L 261.189518 -331.58 
L 263.942022 -331.58 
L 266.694526 -331.58 
L 269.44703 -331.58 
L 272.199534 -331.58 
L 274.952038 -331.58 
L 277.704542 -331.58 
L 280.457046 -331.58 
L 283.20955 -331.58 
L 285.962054 -331.58 
L 288.714559 -331.58 
L 291.467063 -331.58 
L 294.219567 -331.58 
L 296.972071 -331.58 
L 299.724575 -331.58 
L 302.477079 -331.58 
L 305.229583 -331.58 
L 307.982087 -331.58 
L 310.734591 -331.58 
L 313.487095 -331.58 
L 316.239599 -331.58 
L 318.992103 -331.58 
L 321.744607 -331.58 
L 324.497111 -331.58 
L 327.249615 -331.58 
L 330.002119 -331.58 
L 332.754623 -331.58 
L 335.507127 -331.58 
L 338.259631 -331.58 
L 341.012135 -331.58 
L 343.764639 -331.58 
L 346.517143 -331.58 
L 349.269647 -331.58 
L 352.022151 -331.58 
L 354.774656 -331.58 
L 357.52716 -331.58 
L 360.279664 -331.58 
L 363.032168 -331.58 
L 365.784672 -331.58 
L 368.537176 -331.58 
L 371.28968 -331.58 
L 374.042184 -331.58 
L 376.794688 -331.58 
L 379.547192 -331.58 
L 382.299696 -331.58 
L 385.0522 -331.58 
L 387.804704 -331.58 
L 390.557208 -331.58 
L 393.309712 -331.58 
L 396.062216 -331.58 
L 398.81472 -331.58 
L 401.567224 -331.58 
L 404.319728 -331.58 
L 407.072232 -331.58 
L 409.824736 -331.58 
L 412.57724 -331.58 
L 415.329744 -331.58 
L 418.082248 -331.58 
L 420.834753 -331.58 
L 423.587257 -331.58 
L 426.339761 -331.58 
L 429.092265 -331.58 
L 431.844769 -331.58 
L 434.597273 -331.58 
L 437.349777 -331.58 
L 440.102281 -331.58 
L 442.854785 -331.58 
L 445.607289 -331.58 
L 448.359793 -331.58 
L 451.112297 -331.58 
L 453.864801 -331.58 
L 456.617305 -331.58 
L 459.369809 -331.58 
L 462.122313 -331.58 
L 464.874817 -331.58 
L 467.627321 -331.58 
L 470.379825 -331.58 
L 473.132329 -331.58 
L 475.884833 -331.58 
L 478.637337 -331.58 
L 481.389841 -331.58 
L 484.142345 -331.58 
L 486.89485 -331.58 
L 489.647354 -331.58 
L 492.399858 -331.58 
L 495.152362 -331.58 
L 497.904866 -331.58 
L 500.65737 -331.58 
L 503.409874 -331.58 
L 506.162378 -331.58 
L 508.914882 -331.58 
L 511.667386 -331.58 
L 514.41989 -331.58 
L 517.172394 -331.58 
L 519.924898 -331.58 
L 522.677402 -331.58 
L 525.429906 -331.58 
L 528.18241 -331.58 
L 530.934914 -331.58 
L 533.687418 -331.58 
L 536.439922 -331.58 
L 539.192426 -331.58 
L 541.94493 -331.58 
L 544.697434 -331.58 
L 547.449938 -331.58 
L 550.202442 -331.58 
L 552.954946 -331.58 
L 555.707451 -331.58 
L 558.459955 -331.58 
L 561.212459 -331.58 
L 563.964963 -331.58 
L 566.717467 -331.58 
L 569.469971 -331.58 
L 572.222475 -331.58 
L 574.974979 -331.58 
L 577.727483 -331.58 
L 580.479987 -331.58 
L 583.232491 -331.58 
L 585.984995 -331.58 
L 588.737499 -331.58 
L 591.490003 -331.58 
L 594.242507 -331.58 
L 596.995011 -331.58 
L 599.747515 -331.58 
L 602.500019 -331.58 
L 605.252523 -331.58 
L 608.005027 -331.58 
L 610.757531 -331.58 
L 613.510035 -331.58 
L 616.262539 -331.58 
L 619.015043 -331.58 
L 621.767548 -331.58 
L 624.520052 -331.58 
L 627.272556 -331.58 
L 630.02506 -331.58 
L 632.777564 -331.58 
L 635.530068 -331.58 
L 638.282572 -331.58 
L 641.035076 -331.58 
L 643.78758 -331.58 
L 646.540084 -331.58 
L 649.292588 -331.58 
L 652.045092 -331.58 
L 654.797596 -331.58 
L 657.5501 -331.58 
L 660.302604 -331.58 
L 663.055108 -331.58 
L 665.807612 -331.58 
L 668.560116 -331.58 
L 671.31262 -331.58 
L 674.065124 -331.58 
L 676.817628 -331.58 
L 679.570132 -331.58 
L 682.322636 -331.58 
L 685.07514 -331.58 
L 687.827645 -331.58 
L 690.580149 -331.58 
L 693.332653 -331.58 
L 696.085157 -331.58 
L 696.085157 -331.5853 
L 696.085157 -331.5853 
L 693.332653 -331.58867 
L 690.580149 -331.59383 
L 687.827645 -331.601512 
L 685.07514 -331.612638 
L 682.322636 -331.628312 
L 679.570132 -331.649795 
L 676.817628 -331.67845 
L 674.065124 -331.715654 
L 671.31262 -331.762695 
L 668.560116 -331.820658 
L 665.807612 -331.890328 
L 663.055108 -331.972124 
L 660.302604 -332.066094 
L 657.5501 -332.171981 
L 654.797596 -332.289359 
L 652.045092 -332.41783 
L 649.292588 -332.557232 
L 646.540084 -332.707842 
L 643.78758 -332.870504 
L 641.035076 -333.046669 
L 638.282572 -333.23832 
L 635.530068 -333.447802 
L 632.777564 -333.677595 
L 630.02506 -333.930078 
L 627.272556 -334.207354 
L 624.520052 -334.511161 
L 621.767548 -334.842915 
L 619.015043 -335.203857 
L 616.262539 -335.595266 
L 613.510035 -336.018673 
L 610.757531 -336.47601 
L 608.005027 -336.969622 
L 605.252523 -337.502122 
L 602.500019 -338.076066 
L 599.747515 -338.693497 
L 596.995011 -339.355422 
L 594.242507 -340.061294 
L 591.490003 -340.808604 
L 588.737499 -341.592663 
L 585.984995 -342.406621 
L 583.232491 -343.241762 
L 580.479987 -344.088044 
L 577.727483 -344.934827 
L 574.974979 -345.771674 
L 572.222475 -346.589126 
L 569.469971 -347.379309 
L 566.717467 -348.136301 
L 563.964963 -348.856198 
L 561.212459 -349.536913 
L 558.459955 -350.177773 
L 555.707451 -350.779044 
L 552.954946 -351.341475 
L 550.202442 -351.865985 
L 547.449938 -352.353501 
L 544.697434 -352.804923 
L 541.94493 -353.221127 
L 539.192426 -353.602906 
L 536.439922 -353.950747 
L 533.687418 -354.264423 
L 530.934914 -354.542449 
L 528.18241 -354.781511 
L 525.429906 -354.976038 
L 522.677402 -355.118069 
L 519.924898 -355.197534 
L 517.172394 -355.202981 
L 514.41989 -355.122679 
L 511.667386 -354.945966 
L 508.914882 -354.664631 
L 506.162378 -354.274138 
L 503.409874 -353.774519 
L 500.65737 -353.170794 
L 497.904866 -352.472902 
L 495.152362 -351.695154 
L 492.399858 -350.855288 
L 489.647354 -349.973275 
L 486.89485 -349.070001 
L 484.142345 -348.165982 
L 481.389841 -347.280247 
L 478.637337 -346.429461 
L 475.884833 -345.627384 
L 473.132329 -344.884641 
L 470.379825 -344.208815 
L 467.627321 -343.604782 
L 464.874817 -343.075222 
L 462.122313 -342.621205 
L 459.369809 -342.242776 
L 456.617305 -341.939452 
L 453.864801 -341.710584 
L 451.112297 -341.555561 
L 448.359793 -341.473847 
L 445.607289 -341.464885 
L 442.854785 -341.527905 
L 440.102281 -341.661692 
L 437.349777 -341.864369 
L 434.597273 -342.133235 
L 431.844769 -342.4647 
L 429.092265 -342.854323 
L 426.339761 -343.296947 
L 423.587257 -343.786908 
L 420.834753 -344.318273 
L 418.082248 -344.885078 
L 415.329744 -345.481533 
L 412.57724 -346.102178 
L 409.824736 -346.741992 
L 407.072232 -347.3965 
L 404.319728 -348.061915 
L 401.567224 -348.735363 
L 398.81472 -349.415249 
L 396.062216 -350.101766 
L 393.309712 -350.797531 
L 390.557208 -351.508284 
L 387.804704 -352.243541 
L 385.0522 -353.017057 
L 382.299696 -353.846976 
L 379.547192 -354.755533 
L 376.794688 -355.768272 
L 374.042184 -356.912794 
L 371.28968 -358.217149 
L 368.537176 -359.708088 
L 365.784672 -361.409412 
L 363.032168 -363.340687 
L 360.279664 -365.516509 
L 357.52716 -367.946432 
L 354.774656 -370.635489 
L 352.022151 -373.585124 
L 349.269647 -376.794233 
L 346.517143 -380.259991 
L 343.764639 -383.978207 
L 341.012135 -387.9431 
L 338.259631 -392.146566 
L 335.507127 -396.577232 
L 332.754623 -401.21966 
L 330.002119 -406.054129 
L 327.249615 -411.057254 
L 324.497111 -416.203507 
L 321.744607 -421.46743 
L 318.992103 -426.826106 
L 316.239599 -432.261317 
L 313.487095 -437.760844 
L 310.734591 -443.318526 
L 307.982087 -448.932941 
L 305.229583 -454.604888 
L 302.477079 -460.334083 
L 299.724575 -466.115621 
L 296.972071 -471.936771 
L 294.219567 -477.774561 
L 291.467063 -483.594395 
L 288.714559 -489.349754 
L 285.962054 -494.982824 
L 283.20955 -500.42582 
L 280.457046 -505.602759 
L 277.704542 -510.4315 
L 274.952038 -514.826026 
L 272.199534 -518.69901 
L 269.44703 -521.964801 
L 266.694526 -524.542898 
L 263.942022 -526.361894 
L 261.189518 -527.363663 
L 258.437014 -527.507381 
L 255.68451 -526.772838 
L 252.932006 -525.162443 
L 250.179502 -522.701444 
L 247.426998 -519.436072 
L 244.674494 -515.429642 
L 241.92199 -510.75696 
L 239.169486 -505.497656 
L 236.416982 -499.729293 
L 233.664478 -493.521137 
L 230.911974 -486.929451 
L 228.15947 -479.995003 
L 225.406966 -472.743213 
L 222.654462 -465.187057 
L 219.901957 -457.332455 
L 217.149453 -449.185529 
L 214.396949 -440.760735 
L 211.644445 -432.088696 
L 208.891941 -423.22241 
L 206.139437 -414.240674 
L 203.386933 -405.24788 
L 200.634429 -396.36988 
L 197.881925 -387.746246 
L 195.129421 -379.519877 
L 192.376917 -371.825383 
L 189.624413 -364.777924 
L 186.871909 -358.464055 
L 184.119405 -352.935815 
L 181.366901 -348.208678 
L 178.614397 -344.263366 
L 175.861893 -341.050909 
L 173.109389 -338.499931 
L 170.356885 -336.524957 
L 167.604381 -335.034569 
L 164.851877 -333.9385 
L 162.099373 -333.153065 
L 159.346869 -332.604707 
L 156.594365 -332.231752 
L 153.84186 -331.984664 
L 151.089356 -331.825215 
L 148.336852 -331.724997 
z
" id="mf22bae44c2" style="stroke:#87ceeb;"/>
    </defs>
    <g clip-path="url(#pa96bed8f51)">
     <use style="fill:#87ceeb;fill-opacity:0.5;stroke:#87ceeb;" x="0" xlink:href="#mf22bae44c2" y="864"/>
    </g>
   </g>
   <g id="PolyCollection_4">
    <defs>
     <path d="M 71.584544 -331.720087 
L 71.584544 -331.58 
L 75.16088 -331.58 
L 78.737216 -331.58 
L 82.313552 -331.58 
L 85.889888 -331.58 
L 89.466224 -331.58 
L 93.04256 -331.58 
L 96.618896 -331.58 
L 100.195232 -331.58 
L 103.771568 -331.58 
L 107.347904 -331.58 
L 110.92424 -331.58 
L 114.500576 -331.58 
L 118.076913 -331.58 
L 121.653249 -331.58 
L 125.229585 -331.58 
L 128.805921 -331.58 
L 132.382257 -331.58 
L 135.958593 -331.58 
L 139.534929 -331.58 
L 143.111265 -331.58 
L 146.687601 -331.58 
L 150.263937 -331.58 
L 153.840273 -331.58 
L 157.416609 -331.58 
L 160.992945 -331.58 
L 164.569281 -331.58 
L 168.145617 -331.58 
L 171.721953 -331.58 
L 175.298289 -331.58 
L 178.874625 -331.58 
L 182.450962 -331.58 
L 186.027298 -331.58 
L 189.603634 -331.58 
L 193.17997 -331.58 
L 196.756306 -331.58 
L 200.332642 -331.58 
L 203.908978 -331.58 
L 207.485314 -331.58 
L 211.06165 -331.58 
L 214.637986 -331.58 
L 218.214322 -331.58 
L 221.790658 -331.58 
L 225.366994 -331.58 
L 228.94333 -331.58 
L 232.519666 -331.58 
L 236.096002 -331.58 
L 239.672338 -331.58 
L 243.248675 -331.58 
L 246.825011 -331.58 
L 250.401347 -331.58 
L 253.977683 -331.58 
L 257.554019 -331.58 
L 261.130355 -331.58 
L 264.706691 -331.58 
L 268.283027 -331.58 
L 271.859363 -331.58 
L 275.435699 -331.58 
L 279.012035 -331.58 
L 282.588371 -331.58 
L 286.164707 -331.58 
L 289.741043 -331.58 
L 293.317379 -331.58 
L 296.893715 -331.58 
L 300.470051 -331.58 
L 304.046388 -331.58 
L 307.622724 -331.58 
L 311.19906 -331.58 
L 314.775396 -331.58 
L 318.351732 -331.58 
L 321.928068 -331.58 
L 325.504404 -331.58 
L 329.08074 -331.58 
L 332.657076 -331.58 
L 336.233412 -331.58 
L 339.809748 -331.58 
L 343.386084 -331.58 
L 346.96242 -331.58 
L 350.538756 -331.58 
L 354.115092 -331.58 
L 357.691428 -331.58 
L 361.267764 -331.58 
L 364.8441 -331.58 
L 368.420437 -331.58 
L 371.996773 -331.58 
L 375.573109 -331.58 
L 379.149445 -331.58 
L 382.725781 -331.58 
L 386.302117 -331.58 
L 389.878453 -331.58 
L 393.454789 -331.58 
L 397.031125 -331.58 
L 400.607461 -331.58 
L 404.183797 -331.58 
L 407.760133 -331.58 
L 411.336469 -331.58 
L 414.912805 -331.58 
L 418.489141 -331.58 
L 422.065477 -331.58 
L 425.641813 -331.58 
L 429.21815 -331.58 
L 432.794486 -331.58 
L 436.370822 -331.58 
L 439.947158 -331.58 
L 443.523494 -331.58 
L 447.09983 -331.58 
L 450.676166 -331.58 
L 454.252502 -331.58 
L 457.828838 -331.58 
L 461.405174 -331.58 
L 464.98151 -331.58 
L 468.557846 -331.58 
L 472.134182 -331.58 
L 475.710518 -331.58 
L 479.286854 -331.58 
L 482.86319 -331.58 
L 486.439526 -331.58 
L 490.015862 -331.58 
L 493.592199 -331.58 
L 497.168535 -331.58 
L 500.744871 -331.58 
L 504.321207 -331.58 
L 507.897543 -331.58 
L 511.473879 -331.58 
L 515.050215 -331.58 
L 518.626551 -331.58 
L 522.202887 -331.58 
L 525.779223 -331.58 
L 529.355559 -331.58 
L 532.931895 -331.58 
L 536.508231 -331.58 
L 540.084567 -331.58 
L 543.660903 -331.58 
L 547.237239 -331.58 
L 550.813575 -331.58 
L 554.389912 -331.58 
L 557.966248 -331.58 
L 561.542584 -331.58 
L 565.11892 -331.58 
L 568.695256 -331.58 
L 572.271592 -331.58 
L 575.847928 -331.58 
L 579.424264 -331.58 
L 583.0006 -331.58 
L 586.576936 -331.58 
L 590.153272 -331.58 
L 593.729608 -331.58 
L 597.305944 -331.58 
L 600.88228 -331.58 
L 604.458616 -331.58 
L 608.034952 -331.58 
L 611.611288 -331.58 
L 615.187625 -331.58 
L 618.763961 -331.58 
L 622.340297 -331.58 
L 625.916633 -331.58 
L 629.492969 -331.58 
L 633.069305 -331.58 
L 636.645641 -331.58 
L 640.221977 -331.58 
L 643.798313 -331.58 
L 647.374649 -331.58 
L 650.950985 -331.58 
L 654.527321 -331.58 
L 658.103657 -331.58 
L 661.679993 -331.58 
L 665.256329 -331.58 
L 668.832665 -331.58 
L 672.409001 -331.58 
L 675.985337 -331.58 
L 679.561674 -331.58 
L 683.13801 -331.58 
L 686.714346 -331.58 
L 690.290682 -331.58 
L 693.867018 -331.58 
L 697.443354 -331.58 
L 701.01969 -331.58 
L 704.596026 -331.58 
L 708.172362 -331.58 
L 711.748698 -331.58 
L 715.325034 -331.58 
L 718.90137 -331.58 
L 722.477706 -331.58 
L 726.054042 -331.58 
L 729.630378 -331.58 
L 733.206714 -331.58 
L 736.78305 -331.58 
L 740.359387 -331.58 
L 743.935723 -331.58 
L 747.512059 -331.58 
L 751.088395 -331.58 
L 754.664731 -331.58 
L 758.241067 -331.58 
L 761.817403 -331.58 
L 765.393739 -331.58 
L 768.970075 -331.58 
L 772.546411 -331.58 
L 776.122747 -331.58 
L 779.699083 -331.58 
L 783.275419 -331.58 
L 783.275419 -331.596172 
L 783.275419 -331.596172 
L 779.699083 -331.60106 
L 776.122747 -331.607262 
L 772.546411 -331.615083 
L 768.970075 -331.624883 
L 765.393739 -331.637088 
L 761.817403 -331.652196 
L 758.241067 -331.670782 
L 754.664731 -331.693512 
L 751.088395 -331.721146 
L 747.512059 -331.754543 
L 743.935723 -331.794675 
L 740.359387 -331.842624 
L 736.78305 -331.899592 
L 733.206714 -331.966903 
L 729.630378 -332.046002 
L 726.054042 -332.13846 
L 722.477706 -332.245967 
L 718.90137 -332.370335 
L 715.325034 -332.513485 
L 711.748698 -332.677449 
L 708.172362 -332.864354 
L 704.596026 -333.076416 
L 701.01969 -333.315928 
L 697.443354 -333.585244 
L 693.867018 -333.88677 
L 690.290682 -334.222942 
L 686.714346 -334.596215 
L 683.13801 -335.009043 
L 679.561674 -335.463859 
L 675.985337 -335.963056 
L 672.409001 -336.508967 
L 668.832665 -337.103841 
L 665.256329 -337.74982 
L 661.679993 -338.448912 
L 658.103657 -339.202964 
L 654.527321 -340.013633 
L 650.950985 -340.882356 
L 647.374649 -341.810312 
L 643.798313 -342.798392 
L 640.221977 -343.847157 
L 636.645641 -344.9568 
L 633.069305 -346.127109 
L 629.492969 -347.357421 
L 625.916633 -348.646582 
L 622.340297 -349.992907 
L 618.763961 -351.39414 
L 615.187625 -352.847416 
L 611.611288 -354.349228 
L 608.034952 -355.895398 
L 604.458616 -357.481056 
L 600.88228 -359.100622 
L 597.305944 -360.747803 
L 593.729608 -362.415594 
L 590.153272 -364.096296 
L 586.576936 -365.781547 
L 583.0006 -367.46236 
L 579.424264 -369.129181 
L 575.847928 -370.771965 
L 572.271592 -372.380258 
L 568.695256 -373.943299 
L 565.11892 -375.450137 
L 561.542584 -376.889756 
L 557.966248 -378.251215 
L 554.389912 -379.523789 
L 550.813575 -380.697128 
L 547.237239 -381.761409 
L 543.660903 -382.707488 
L 540.084567 -383.527057 
L 536.508231 -384.212788 
L 532.931895 -384.758462 
L 529.355559 -385.159101 
L 525.779223 -385.411061 
L 522.202887 -385.512128 
L 518.626551 -385.461575 
L 515.050215 -385.260202 
L 511.473879 -384.910357 
L 507.897543 -384.415917 
L 504.321207 -383.782258 
L 500.744871 -383.016188 
L 497.168535 -382.125864 
L 493.592199 -381.120683 
L 490.015862 -380.011157 
L 486.439526 -378.808768 
L 482.86319 -377.525818 
L 479.286854 -376.175262 
L 475.710518 -374.77055 
L 472.134182 -373.325455 
L 468.557846 -371.853921 
L 464.98151 -370.36991 
L 461.405174 -368.887267 
L 457.828838 -367.419592 
L 454.252502 -365.980142 
L 450.676166 -364.581741 
L 447.09983 -363.236711 
L 443.523494 -361.956824 
L 439.947158 -360.75327 
L 436.370822 -359.636639 
L 432.794486 -358.616917 
L 429.21815 -357.703496 
L 425.641813 -356.905191 
L 422.065477 -356.230255 
L 418.489141 -355.686404 
L 414.912805 -355.28084 
L 411.336469 -355.020261 
L 407.760133 -354.910878 
L 404.183797 -354.958409 
L 400.607461 -355.168074 
L 397.031125 -355.544563 
L 393.454789 -356.092006 
L 389.878453 -356.813919 
L 386.302117 -357.713137 
L 382.725781 -358.791736 
L 379.149445 -360.050945 
L 375.573109 -361.491045 
L 371.996773 -363.111266 
L 368.420437 -364.90968 
L 364.8441 -366.883094 
L 361.267764 -369.026953 
L 357.691428 -371.335254 
L 354.115092 -373.800466 
L 350.538756 -376.413482 
L 346.96242 -379.163581 
L 343.386084 -382.038423 
L 339.809748 -385.024063 
L 336.233412 -388.104993 
L 332.657076 -391.264213 
L 329.08074 -394.483318 
L 325.504404 -397.74261 
L 321.928068 -401.021225 
L 318.351732 -404.297279 
L 314.775396 -407.548015 
L 311.19906 -410.74997 
L 307.622724 -413.879136 
L 304.046388 -416.911136 
L 300.470051 -419.8214 
L 296.893715 -422.585344 
L 293.317379 -425.178561 
L 289.741043 -427.577024 
L 286.164707 -429.757295 
L 282.588371 -431.696762 
L 279.012035 -433.373881 
L 275.435699 -434.768449 
L 271.859363 -435.861893 
L 268.283027 -436.637572 
L 264.706691 -437.081099 
L 261.130355 -437.180663 
L 257.554019 -436.927349 
L 253.977683 -436.315443 
L 250.401347 -435.34271 
L 246.825011 -434.010633 
L 243.248675 -432.324594 
L 239.672338 -430.293992 
L 236.096002 -427.932278 
L 232.519666 -425.256907 
L 228.94333 -422.28919 
L 225.366994 -419.054057 
L 221.790658 -415.579721 
L 218.214322 -411.897251 
L 214.637986 -408.040066 
L 211.06165 -404.043365 
L 207.485314 -399.943499 
L 203.908978 -395.77732 
L 200.332642 -391.581506 
L 196.756306 -387.391909 
L 193.17997 -383.242916 
L 189.603634 -379.166872 
L 186.027298 -375.193559 
L 182.450962 -371.349764 
L 178.874625 -367.658928 
L 175.298289 -364.140897 
L 171.721953 -360.811777 
L 168.145617 -357.683885 
L 164.569281 -354.765798 
L 160.992945 -352.062486 
L 157.416609 -349.575531 
L 153.840273 -347.3034 
L 150.263937 -345.241783 
L 146.687601 -343.383951 
L 143.111265 -341.721151 
L 139.534929 -340.243002 
L 135.958593 -338.937886 
L 132.382257 -337.793323 
L 128.805921 -336.796322 
L 125.229585 -335.933699 
L 121.653249 -335.192357 
L 118.076913 -334.559519 
L 114.500576 -334.022928 
L 110.92424 -333.570995 
L 107.347904 -333.192914 
L 103.771568 -332.878738 
L 100.195232 -332.619412 
L 96.618896 -332.406797 
L 93.04256 -332.233646 
L 89.466224 -332.09358 
L 85.889888 -331.981037 
L 82.313552 -331.891216 
L 78.737216 -331.82001 
L 75.16088 -331.763941 
L 71.584544 -331.720087 
z
" id="m65bab1238e" style="stroke:#dc143c;"/>
    </defs>
    <g clip-path="url(#pa96bed8f51)">
     <use style="fill:#dc143c;fill-opacity:0.5;stroke:#dc143c;" x="0" xlink:href="#m65bab1238e" y="864"/>
    </g>
   </g>
   <g id="patch_11">
    <path d="M 36 532.42 
L 36 326.69625 
" style="fill:none;stroke:#262626;stroke-linecap:square;stroke-linejoin:miter;stroke-width:1.25;"/>
   </g>
   <g id="patch_12">
    <path d="M 818.859963 532.42 
L 818.859963 326.69625 
" style="fill:none;stroke:#262626;stroke-linecap:square;stroke-linejoin:miter;stroke-width:1.25;"/>
   </g>
   <g id="patch_13">
    <path d="M 36 532.42 
L 818.859963 532.42 
" style="fill:none;stroke:#262626;stroke-linecap:square;stroke-linejoin:miter;stroke-width:1.25;"/>
   </g>
   <g id="patch_14">
    <path d="M 36 326.69625 
L 818.859963 326.69625 
" style="fill:none;stroke:#262626;stroke-linecap:square;stroke-linejoin:miter;stroke-width:1.25;"/>
   </g>
   <g id="text_19">
    <!-- How Glucose Level Impacts on Experiencing Stroke? -->
    <g style="fill:#262626;" transform="translate(286.033419 320.69625)scale(0.12 -0.12)">
     <defs>
      <path d="M 2638 1797 
L 2638 2334 
L 4578 2338 
L 4578 638 
Q 4131 281 3656 101 
Q 3181 -78 2681 -78 
Q 2006 -78 1454 211 
Q 903 500 622 1047 
Q 341 1594 341 2269 
Q 341 2938 620 3517 
Q 900 4097 1425 4378 
Q 1950 4659 2634 4659 
Q 3131 4659 3532 4498 
Q 3934 4338 4162 4050 
Q 4391 3763 4509 3300 
L 3963 3150 
Q 3859 3500 3706 3700 
Q 3553 3900 3268 4020 
Q 2984 4141 2638 4141 
Q 2222 4141 1919 4014 
Q 1616 3888 1430 3681 
Q 1244 3475 1141 3228 
Q 966 2803 966 2306 
Q 966 1694 1177 1281 
Q 1388 869 1791 669 
Q 2194 469 2647 469 
Q 3041 469 3416 620 
Q 3791 772 3984 944 
L 3984 1797 
L 2638 1797 
z
" id="ArialMT-47" transform="scale(0.015625)"/>
      <path d="M 409 0 
L 409 4581 
L 972 4581 
L 972 0 
L 409 0 
z
" id="ArialMT-6c" transform="scale(0.015625)"/>
      <path d="M 2597 0 
L 2597 488 
Q 2209 -75 1544 -75 
Q 1250 -75 995 37 
Q 741 150 617 320 
Q 494 491 444 738 
Q 409 903 409 1263 
L 409 3319 
L 972 3319 
L 972 1478 
Q 972 1038 1006 884 
Q 1059 663 1231 536 
Q 1403 409 1656 409 
Q 1909 409 2131 539 
Q 2353 669 2445 892 
Q 2538 1116 2538 1541 
L 2538 3319 
L 3100 3319 
L 3100 0 
L 2597 0 
z
" id="ArialMT-75" transform="scale(0.015625)"/>
      <path d="M 469 0 
L 469 4581 
L 1075 4581 
L 1075 541 
L 3331 541 
L 3331 0 
L 469 0 
z
" id="ArialMT-4c" transform="scale(0.015625)"/>
      <path d="M 1344 0 
L 81 3319 
L 675 3319 
L 1388 1331 
Q 1503 1009 1600 663 
Q 1675 925 1809 1294 
L 2547 3319 
L 3125 3319 
L 1869 0 
L 1344 0 
z
" id="ArialMT-76" transform="scale(0.015625)"/>
     </defs>
     <use xlink:href="#ArialMT-48"/>
     <use x="72.216797" xlink:href="#ArialMT-6f"/>
     <use x="127.832031" xlink:href="#ArialMT-77"/>
     <use x="200.048828" xlink:href="#ArialMT-20"/>
     <use x="227.832031" xlink:href="#ArialMT-47"/>
     <use x="305.615234" xlink:href="#ArialMT-6c"/>
     <use x="327.832031" xlink:href="#ArialMT-75"/>
     <use x="383.447266" xlink:href="#ArialMT-63"/>
     <use x="433.447266" xlink:href="#ArialMT-6f"/>
     <use x="489.0625" xlink:href="#ArialMT-73"/>
     <use x="539.0625" xlink:href="#ArialMT-65"/>
     <use x="594.677734" xlink:href="#ArialMT-20"/>
     <use x="622.460938" xlink:href="#ArialMT-4c"/>
     <use x="678.076172" xlink:href="#ArialMT-65"/>
     <use x="733.691406" xlink:href="#ArialMT-76"/>
     <use x="783.691406" xlink:href="#ArialMT-65"/>
     <use x="839.306641" xlink:href="#ArialMT-6c"/>
     <use x="861.523438" xlink:href="#ArialMT-20"/>
     <use x="889.306641" xlink:href="#ArialMT-49"/>
     <use x="917.089844" xlink:href="#ArialMT-6d"/>
     <use x="1000.390625" xlink:href="#ArialMT-70"/>
     <use x="1056.005859" xlink:href="#ArialMT-61"/>
     <use x="1111.621094" xlink:href="#ArialMT-63"/>
     <use x="1161.621094" xlink:href="#ArialMT-74"/>
     <use x="1189.404297" xlink:href="#ArialMT-73"/>
     <use x="1239.404297" xlink:href="#ArialMT-20"/>
     <use x="1267.1875" xlink:href="#ArialMT-6f"/>
     <use x="1322.802734" xlink:href="#ArialMT-6e"/>
     <use x="1378.417969" xlink:href="#ArialMT-20"/>
     <use x="1406.201172" xlink:href="#ArialMT-45"/>
     <use x="1472.900391" xlink:href="#ArialMT-78"/>
     <use x="1522.900391" xlink:href="#ArialMT-70"/>
     <use x="1578.515625" xlink:href="#ArialMT-65"/>
     <use x="1634.130859" xlink:href="#ArialMT-72"/>
     <use x="1667.431641" xlink:href="#ArialMT-69"/>
     <use x="1689.648438" xlink:href="#ArialMT-65"/>
     <use x="1745.263672" xlink:href="#ArialMT-6e"/>
     <use x="1800.878906" xlink:href="#ArialMT-63"/>
     <use x="1850.878906" xlink:href="#ArialMT-69"/>
     <use x="1873.095703" xlink:href="#ArialMT-6e"/>
     <use x="1928.710938" xlink:href="#ArialMT-67"/>
     <use x="1984.326172" xlink:href="#ArialMT-20"/>
     <use x="2012.109375" xlink:href="#ArialMT-53"/>
     <use x="2078.808594" xlink:href="#ArialMT-74"/>
     <use x="2106.591797" xlink:href="#ArialMT-72"/>
     <use x="2139.892578" xlink:href="#ArialMT-6f"/>
     <use x="2195.507812" xlink:href="#ArialMT-6b"/>
     <use x="2245.507812" xlink:href="#ArialMT-65"/>
     <use x="2301.123047" xlink:href="#ArialMT-3f"/>
    </g>
   </g>
   <g id="legend_2">
    <g id="patch_15">
     <path d="M 758.009338 383.090313 
L 811.159963 383.090313 
Q 813.359963 383.090313 813.359963 380.890313 
L 813.359963 334.39625 
Q 813.359963 332.19625 811.159963 332.19625 
L 758.009338 332.19625 
Q 755.809338 332.19625 755.809338 334.39625 
L 755.809338 380.890313 
Q 755.809338 383.090313 758.009338 383.090313 
z
" style="fill:#ffffff;opacity:0.8;stroke:#cccccc;stroke-linejoin:miter;"/>
    </g>
    <g id="text_20">
     <!-- Stroke -->
     <g style="fill:#262626;" transform="translate(767.24465 345.185625)scale(0.12 -0.12)">
      <use xlink:href="#ArialMT-53"/>
      <use x="66.699219" xlink:href="#ArialMT-74"/>
      <use x="94.482422" xlink:href="#ArialMT-72"/>
      <use x="127.783203" xlink:href="#ArialMT-6f"/>
      <use x="183.398438" xlink:href="#ArialMT-6b"/>
      <use x="233.398438" xlink:href="#ArialMT-65"/>
     </g>
    </g>
    <g id="patch_16">
     <path d="M 760.209338 360.944219 
L 782.209338 360.944219 
L 782.209338 353.244219 
L 760.209338 353.244219 
z
" style="fill:#87ceeb;fill-opacity:0.5;stroke:#87ceeb;stroke-linejoin:miter;"/>
    </g>
    <g id="text_21">
     <!-- No -->
     <g style="fill:#262626;" transform="translate(791.009338 360.944219)scale(0.11 -0.11)">
      <use xlink:href="#ArialMT-4e"/>
      <use x="72.216797" xlink:href="#ArialMT-6f"/>
     </g>
    </g>
    <g id="patch_17">
     <path d="M 760.209338 376.504063 
L 782.209338 376.504063 
L 782.209338 368.804063 
L 760.209338 368.804063 
z
" style="fill:#dc143c;fill-opacity:0.5;stroke:#dc143c;stroke-linejoin:miter;"/>
    </g>
    <g id="text_22">
     <!-- Yes -->
     <g style="fill:#262626;" transform="translate(791.009338 376.504063)scale(0.11 -0.11)">
      <use xlink:href="#ArialMT-59"/>
      <use x="57.574219" xlink:href="#ArialMT-65"/>
      <use x="113.189453" xlink:href="#ArialMT-73"/>
     </g>
    </g>
   </g>
  </g>
  <g id="axes_3">
   <g id="patch_18">
    <path d="M 36 808.42 
L 818.859963 808.42 
L 818.859963 602.69625 
L 36 602.69625 
z
" style="fill:#ffffff;"/>
   </g>
   <g id="matplotlib.axis_5">
    <g id="xtick_15">
     <g id="text_23">
      <!-- 20 -->
      <g style="fill:#262626;" transform="translate(169.749028 825.793594)scale(0.11 -0.11)">
       <use xlink:href="#ArialMT-32"/>
       <use x="55.615234" xlink:href="#ArialMT-30"/>
      </g>
     </g>
    </g>
    <g id="xtick_16">
     <g id="text_24">
      <!-- 40 -->
      <g style="fill:#262626;" transform="translate(317.945742 825.793594)scale(0.11 -0.11)">
       <use xlink:href="#ArialMT-34"/>
       <use x="55.615234" xlink:href="#ArialMT-30"/>
      </g>
     </g>
    </g>
    <g id="xtick_17">
     <g id="text_25">
      <!-- 60 -->
      <g style="fill:#262626;" transform="translate(466.142456 825.793594)scale(0.11 -0.11)">
       <use xlink:href="#ArialMT-36"/>
       <use x="55.615234" xlink:href="#ArialMT-30"/>
      </g>
     </g>
    </g>
    <g id="xtick_18">
     <g id="text_26">
      <!-- 80 -->
      <g style="fill:#262626;" transform="translate(614.33917 825.793594)scale(0.11 -0.11)">
       <use xlink:href="#ArialMT-38"/>
       <use x="55.615234" xlink:href="#ArialMT-30"/>
      </g>
     </g>
    </g>
    <g id="xtick_19">
     <g id="text_27">
      <!-- 100 -->
      <g style="fill:#262626;" transform="translate(759.477369 825.793594)scale(0.11 -0.11)">
       <use xlink:href="#ArialMT-31"/>
       <use x="55.615234" xlink:href="#ArialMT-30"/>
       <use x="111.230469" xlink:href="#ArialMT-30"/>
      </g>
     </g>
    </g>
   </g>
   <g id="matplotlib.axis_6"/>
   <g id="PolyCollection_5">
    <defs>
     <path d="M 71.584544 -55.582144 
L 71.584544 -55.58 
L 75.16088 -55.58 
L 78.737216 -55.58 
L 82.313552 -55.58 
L 85.889888 -55.58 
L 89.466224 -55.58 
L 93.04256 -55.58 
L 96.618896 -55.58 
L 100.195232 -55.58 
L 103.771568 -55.58 
L 107.347904 -55.58 
L 110.92424 -55.58 
L 114.500576 -55.58 
L 118.076913 -55.58 
L 121.653249 -55.58 
L 125.229585 -55.58 
L 128.805921 -55.58 
L 132.382257 -55.58 
L 135.958593 -55.58 
L 139.534929 -55.58 
L 143.111265 -55.58 
L 146.687601 -55.58 
L 150.263937 -55.58 
L 153.840273 -55.58 
L 157.416609 -55.58 
L 160.992945 -55.58 
L 164.569281 -55.58 
L 168.145617 -55.58 
L 171.721953 -55.58 
L 175.298289 -55.58 
L 178.874625 -55.58 
L 182.450962 -55.58 
L 186.027298 -55.58 
L 189.603634 -55.58 
L 193.17997 -55.58 
L 196.756306 -55.58 
L 200.332642 -55.58 
L 203.908978 -55.58 
L 207.485314 -55.58 
L 211.06165 -55.58 
L 214.637986 -55.58 
L 218.214322 -55.58 
L 221.790658 -55.58 
L 225.366994 -55.58 
L 228.94333 -55.58 
L 232.519666 -55.58 
L 236.096002 -55.58 
L 239.672338 -55.58 
L 243.248675 -55.58 
L 246.825011 -55.58 
L 250.401347 -55.58 
L 253.977683 -55.58 
L 257.554019 -55.58 
L 261.130355 -55.58 
L 264.706691 -55.58 
L 268.283027 -55.58 
L 271.859363 -55.58 
L 275.435699 -55.58 
L 279.012035 -55.58 
L 282.588371 -55.58 
L 286.164707 -55.58 
L 289.741043 -55.58 
L 293.317379 -55.58 
L 296.893715 -55.58 
L 300.470051 -55.58 
L 304.046388 -55.58 
L 307.622724 -55.58 
L 311.19906 -55.58 
L 314.775396 -55.58 
L 318.351732 -55.58 
L 321.928068 -55.58 
L 325.504404 -55.58 
L 329.08074 -55.58 
L 332.657076 -55.58 
L 336.233412 -55.58 
L 339.809748 -55.58 
L 343.386084 -55.58 
L 346.96242 -55.58 
L 350.538756 -55.58 
L 354.115092 -55.58 
L 357.691428 -55.58 
L 361.267764 -55.58 
L 364.8441 -55.58 
L 368.420437 -55.58 
L 371.996773 -55.58 
L 375.573109 -55.58 
L 379.149445 -55.58 
L 382.725781 -55.58 
L 386.302117 -55.58 
L 389.878453 -55.58 
L 393.454789 -55.58 
L 397.031125 -55.58 
L 400.607461 -55.58 
L 404.183797 -55.58 
L 407.760133 -55.58 
L 411.336469 -55.58 
L 414.912805 -55.58 
L 418.489141 -55.58 
L 422.065477 -55.58 
L 425.641813 -55.58 
L 429.21815 -55.58 
L 432.794486 -55.58 
L 436.370822 -55.58 
L 439.947158 -55.58 
L 443.523494 -55.58 
L 447.09983 -55.58 
L 450.676166 -55.58 
L 454.252502 -55.58 
L 457.828838 -55.58 
L 461.405174 -55.58 
L 464.98151 -55.58 
L 468.557846 -55.58 
L 472.134182 -55.58 
L 475.710518 -55.58 
L 479.286854 -55.58 
L 482.86319 -55.58 
L 486.439526 -55.58 
L 490.015862 -55.58 
L 493.592199 -55.58 
L 497.168535 -55.58 
L 500.744871 -55.58 
L 504.321207 -55.58 
L 507.897543 -55.58 
L 511.473879 -55.58 
L 515.050215 -55.58 
L 518.626551 -55.58 
L 522.202887 -55.58 
L 525.779223 -55.58 
L 529.355559 -55.58 
L 532.931895 -55.58 
L 536.508231 -55.58 
L 540.084567 -55.58 
L 543.660903 -55.58 
L 547.237239 -55.58 
L 550.813575 -55.58 
L 554.389912 -55.58 
L 557.966248 -55.58 
L 561.542584 -55.58 
L 565.11892 -55.58 
L 568.695256 -55.58 
L 572.271592 -55.58 
L 575.847928 -55.58 
L 579.424264 -55.58 
L 583.0006 -55.58 
L 586.576936 -55.58 
L 590.153272 -55.58 
L 593.729608 -55.58 
L 597.305944 -55.58 
L 600.88228 -55.58 
L 604.458616 -55.58 
L 608.034952 -55.58 
L 611.611288 -55.58 
L 615.187625 -55.58 
L 618.763961 -55.58 
L 622.340297 -55.58 
L 625.916633 -55.58 
L 629.492969 -55.58 
L 633.069305 -55.58 
L 636.645641 -55.58 
L 640.221977 -55.58 
L 643.798313 -55.58 
L 647.374649 -55.58 
L 650.950985 -55.58 
L 654.527321 -55.58 
L 658.103657 -55.58 
L 661.679993 -55.58 
L 665.256329 -55.58 
L 668.832665 -55.58 
L 672.409001 -55.58 
L 675.985337 -55.58 
L 679.561674 -55.58 
L 683.13801 -55.58 
L 686.714346 -55.58 
L 690.290682 -55.58 
L 693.867018 -55.58 
L 697.443354 -55.58 
L 701.01969 -55.58 
L 704.596026 -55.58 
L 708.172362 -55.58 
L 711.748698 -55.58 
L 715.325034 -55.58 
L 718.90137 -55.58 
L 722.477706 -55.58 
L 726.054042 -55.58 
L 729.630378 -55.58 
L 733.206714 -55.58 
L 736.78305 -55.58 
L 740.359387 -55.58 
L 743.935723 -55.58 
L 747.512059 -55.58 
L 751.088395 -55.58 
L 754.664731 -55.58 
L 758.241067 -55.58 
L 761.817403 -55.58 
L 765.393739 -55.58 
L 768.970075 -55.58 
L 772.546411 -55.58 
L 776.122747 -55.58 
L 779.699083 -55.58 
L 783.275419 -55.58 
L 783.275419 -55.581807 
L 783.275419 -55.581807 
L 779.699083 -55.584619 
L 776.122747 -55.590581 
L 772.546411 -55.60172 
L 768.970075 -55.619958 
L 765.393739 -55.645879 
L 761.817403 -55.677338 
L 758.241067 -55.708892 
L 754.664731 -55.732967 
L 751.088395 -55.742741 
L 747.512059 -55.73533 
L 743.935723 -55.713368 
L 740.359387 -55.683997 
L 736.78305 -55.65602 
L 733.206714 -55.637 
L 729.630378 -55.631581 
L 726.054042 -55.641007 
L 722.477706 -55.663091 
L 718.90137 -55.6923 
L 715.325034 -55.720501 
L 711.748698 -55.739028 
L 708.172362 -55.741743 
L 704.596026 -55.727536 
L 701.01969 -55.70063 
L 697.443354 -55.668397 
L 693.867018 -55.638052 
L 690.290682 -55.614166 
L 686.714346 -55.598021 
L 683.13801 -55.588518 
L 679.561674 -55.583608 
L 675.985337 -55.58137 
L 672.409001 -55.580466 
L 668.832665 -55.580142 
L 665.256329 -55.580039 
L 661.679993 -55.58001 
L 658.103657 -55.580003 
L 654.527321 -55.580006 
L 650.950985 -55.580025 
L 647.374649 -55.580093 
L 643.798313 -55.580317 
L 640.221977 -55.580967 
L 636.645641 -55.582642 
L 633.069305 -55.586469 
L 629.492969 -55.594197 
L 625.916633 -55.607922 
L 622.340297 -55.629214 
L 618.763961 -55.657738 
L 615.187625 -55.690046 
L 611.611288 -55.719608 
L 608.034952 -55.73873 
L 604.458616 -55.741757 
L 600.88228 -55.72781 
L 597.305944 -55.701314 
L 593.729608 -55.67002 
L 590.153272 -55.641935 
L 586.576936 -55.623004 
L 583.0006 -55.616463 
L 579.424264 -55.623269 
L 575.847928 -55.642425 
L 572.271592 -55.670646 
L 568.695256 -55.70194 
L 565.11892 -55.728308 
L 561.542584 -55.742119 
L 557.966248 -55.739272 
L 554.389912 -55.72128 
L 550.813575 -55.694907 
L 547.237239 -55.669586 
L 543.660903 -55.654162 
L 540.084567 -55.654509 
L 536.508231 -55.672601 
L 532.931895 -55.706829 
L 529.355559 -55.753233 
L 525.779223 -55.807277 
L 522.202887 -55.865411 
L 518.626551 -55.925398 
L 515.050215 -55.985164 
L 511.473879 -56.041495 
L 507.897543 -56.090663 
L 504.321207 -56.131503 
L 500.744871 -56.168693 
L 497.168535 -56.212631 
L 493.592199 -56.274236 
L 490.015862 -56.357162 
L 486.439526 -56.453086 
L 482.86319 -56.544852 
L 479.286854 -56.617282 
L 475.710518 -56.669582 
L 472.134182 -56.721096 
L 468.557846 -56.805817 
L 464.98151 -56.95853 
L 461.405174 -57.201016 
L 457.828838 -57.536086 
L 454.252502 -57.950586 
L 450.676166 -58.421735 
L 447.09983 -58.920313 
L 443.523494 -59.409796 
L 439.947158 -59.846738 
L 436.370822 -60.18781 
L 432.794486 -60.403037 
L 429.21815 -60.488784 
L 425.641813 -60.473458 
L 422.065477 -60.413119 
L 418.489141 -60.378486 
L 414.912805 -60.436331 
L 411.336469 -60.629063 
L 407.760133 -60.958793 
L 404.183797 -61.384497 
L 400.607461 -61.837616 
L 397.031125 -62.251687 
L 393.454789 -62.592585 
L 389.878453 -62.876026 
L 386.302117 -63.167816 
L 382.725781 -63.570927 
L 379.149445 -64.204751 
L 375.573109 -65.178676 
L 371.996773 -66.562105 
L 368.420437 -68.358364 
L 364.8441 -70.494574 
L 361.267764 -72.836555 
L 357.691428 -75.227204 
L 354.115092 -77.53478 
L 350.538756 -79.691433 
L 346.96242 -81.706225 
L 343.386084 -83.649545 
L 339.809748 -85.619716 
L 336.233412 -87.708135 
L 332.657076 -89.974208 
L 329.08074 -92.433685 
L 325.504404 -95.061862 
L 321.928068 -97.81373 
L 318.351732 -100.657875 
L 314.775396 -103.609728 
L 311.19906 -106.743918 
L 307.622724 -110.173962 
L 304.046388 -114.006597 
L 300.470051 -118.294808 
L 296.893715 -123.016636 
L 293.317379 -128.092654 
L 289.741043 -133.430531 
L 286.164707 -138.965998 
L 282.588371 -144.671172 
L 279.012035 -150.525505 
L 275.435699 -156.475476 
L 271.859363 -162.422302 
L 268.283027 -168.258414 
L 264.706691 -173.933112 
L 261.130355 -179.495703 
L 257.554019 -185.069817 
L 253.977683 -190.757423 
L 250.401347 -196.524277 
L 246.825011 -202.139068 
L 243.248675 -207.208798 
L 239.672338 -211.294844 
L 236.096002 -214.050014 
L 232.519666 -215.314554 
L 228.94333 -215.140353 
L 225.366994 -213.747362 
L 221.790658 -211.434846 
L 218.214322 -208.477196 
L 214.637986 -205.040031 
L 211.06165 -201.151865 
L 207.485314 -196.746118 
L 203.908978 -191.750738 
L 200.332642 -186.173224 
L 196.756306 -180.131767 
L 193.17997 -173.818893 
L 189.603634 -167.42805 
L 186.027298 -161.094998 
L 182.450962 -154.888988 
L 178.874625 -148.845731 
L 175.298289 -142.999663 
L 171.721953 -137.377127 
L 168.145617 -131.952437 
L 164.569281 -126.609081 
L 160.992945 -121.151268 
L 157.416609 -115.374224 
L 153.840273 -109.157985 
L 150.263937 -102.533395 
L 146.687601 -95.687294 
L 143.111265 -88.908293 
L 139.534929 -82.502858 
L 135.958593 -76.720635 
L 132.382257 -71.716113 
L 128.805921 -67.549475 
L 125.229585 -64.209028 
L 121.653249 -61.634248 
L 118.076913 -59.730425 
L 114.500576 -58.379208 
L 110.92424 -57.452221 
L 107.347904 -56.828287 
L 103.771568 -56.408283 
L 100.195232 -56.12169 
L 96.618896 -55.923975 
L 93.04256 -55.788688 
L 89.466224 -55.69924 
L 85.889888 -55.64343 
L 82.313552 -55.611137 
L 78.737216 -55.594011 
L 75.16088 -55.58575 
L 71.584544 -55.582144 
z
" id="m9bd155c899" style="stroke:#87ceeb;"/>
    </defs>
    <g clip-path="url(#p196977d7c5)">
     <use style="fill:#87ceeb;fill-opacity:0.5;stroke:#87ceeb;" x="0" xlink:href="#m9bd155c899" y="864"/>
    </g>
   </g>
   <g id="PolyCollection_6">
    <defs>
     <path d="M 104.560018 -55.608346 
L 104.560018 -55.58 
L 106.524046 -55.58 
L 108.488074 -55.58 
L 110.452102 -55.58 
L 112.41613 -55.58 
L 114.380158 -55.58 
L 116.344186 -55.58 
L 118.308214 -55.58 
L 120.272242 -55.58 
L 122.23627 -55.58 
L 124.200298 -55.58 
L 126.164326 -55.58 
L 128.128354 -55.58 
L 130.092382 -55.58 
L 132.05641 -55.58 
L 134.020438 -55.58 
L 135.984466 -55.58 
L 137.948494 -55.58 
L 139.912522 -55.58 
L 141.87655 -55.58 
L 143.840578 -55.58 
L 145.804607 -55.58 
L 147.768635 -55.58 
L 149.732663 -55.58 
L 151.696691 -55.58 
L 153.660719 -55.58 
L 155.624747 -55.58 
L 157.588775 -55.58 
L 159.552803 -55.58 
L 161.516831 -55.58 
L 163.480859 -55.58 
L 165.444887 -55.58 
L 167.408915 -55.58 
L 169.372943 -55.58 
L 171.336971 -55.58 
L 173.300999 -55.58 
L 175.265027 -55.58 
L 177.229055 -55.58 
L 179.193083 -55.58 
L 181.157111 -55.58 
L 183.121139 -55.58 
L 185.085167 -55.58 
L 187.049195 -55.58 
L 189.013223 -55.58 
L 190.977251 -55.58 
L 192.941279 -55.58 
L 194.905307 -55.58 
L 196.869335 -55.58 
L 198.833364 -55.58 
L 200.797392 -55.58 
L 202.76142 -55.58 
L 204.725448 -55.58 
L 206.689476 -55.58 
L 208.653504 -55.58 
L 210.617532 -55.58 
L 212.58156 -55.58 
L 214.545588 -55.58 
L 216.509616 -55.58 
L 218.473644 -55.58 
L 220.437672 -55.58 
L 222.4017 -55.58 
L 224.365728 -55.58 
L 226.329756 -55.58 
L 228.293784 -55.58 
L 230.257812 -55.58 
L 232.22184 -55.58 
L 234.185868 -55.58 
L 236.149896 -55.58 
L 238.113924 -55.58 
L 240.077952 -55.58 
L 242.04198 -55.58 
L 244.006008 -55.58 
L 245.970036 -55.58 
L 247.934064 -55.58 
L 249.898093 -55.58 
L 251.862121 -55.58 
L 253.826149 -55.58 
L 255.790177 -55.58 
L 257.754205 -55.58 
L 259.718233 -55.58 
L 261.682261 -55.58 
L 263.646289 -55.58 
L 265.610317 -55.58 
L 267.574345 -55.58 
L 269.538373 -55.58 
L 271.502401 -55.58 
L 273.466429 -55.58 
L 275.430457 -55.58 
L 277.394485 -55.58 
L 279.358513 -55.58 
L 281.322541 -55.58 
L 283.286569 -55.58 
L 285.250597 -55.58 
L 287.214625 -55.58 
L 289.178653 -55.58 
L 291.142681 -55.58 
L 293.106709 -55.58 
L 295.070737 -55.58 
L 297.034765 -55.58 
L 298.998793 -55.58 
L 300.962821 -55.58 
L 302.92685 -55.58 
L 304.890878 -55.58 
L 306.854906 -55.58 
L 308.818934 -55.58 
L 310.782962 -55.58 
L 312.74699 -55.58 
L 314.711018 -55.58 
L 316.675046 -55.58 
L 318.639074 -55.58 
L 320.603102 -55.58 
L 322.56713 -55.58 
L 324.531158 -55.58 
L 326.495186 -55.58 
L 328.459214 -55.58 
L 330.423242 -55.58 
L 332.38727 -55.58 
L 334.351298 -55.58 
L 336.315326 -55.58 
L 338.279354 -55.58 
L 340.243382 -55.58 
L 342.20741 -55.58 
L 344.171438 -55.58 
L 346.135466 -55.58 
L 348.099494 -55.58 
L 350.063522 -55.58 
L 352.02755 -55.58 
L 353.991578 -55.58 
L 355.955607 -55.58 
L 357.919635 -55.58 
L 359.883663 -55.58 
L 361.847691 -55.58 
L 363.811719 -55.58 
L 365.775747 -55.58 
L 367.739775 -55.58 
L 369.703803 -55.58 
L 371.667831 -55.58 
L 373.631859 -55.58 
L 375.595887 -55.58 
L 377.559915 -55.58 
L 379.523943 -55.58 
L 381.487971 -55.58 
L 383.451999 -55.58 
L 385.416027 -55.58 
L 387.380055 -55.58 
L 389.344083 -55.58 
L 391.308111 -55.58 
L 393.272139 -55.58 
L 395.236167 -55.58 
L 397.200195 -55.58 
L 399.164223 -55.58 
L 401.128251 -55.58 
L 403.092279 -55.58 
L 405.056307 -55.58 
L 407.020335 -55.58 
L 408.984364 -55.58 
L 410.948392 -55.58 
L 412.91242 -55.58 
L 414.876448 -55.58 
L 416.840476 -55.58 
L 418.804504 -55.58 
L 420.768532 -55.58 
L 422.73256 -55.58 
L 424.696588 -55.58 
L 426.660616 -55.58 
L 428.624644 -55.58 
L 430.588672 -55.58 
L 432.5527 -55.58 
L 434.516728 -55.58 
L 436.480756 -55.58 
L 438.444784 -55.58 
L 440.408812 -55.58 
L 442.37284 -55.58 
L 444.336868 -55.58 
L 446.300896 -55.58 
L 448.264924 -55.58 
L 450.228952 -55.58 
L 452.19298 -55.58 
L 454.157008 -55.58 
L 456.121036 -55.58 
L 458.085064 -55.58 
L 460.049092 -55.58 
L 462.013121 -55.58 
L 463.977149 -55.58 
L 465.941177 -55.58 
L 467.905205 -55.58 
L 469.869233 -55.58 
L 471.833261 -55.58 
L 473.797289 -55.58 
L 475.761317 -55.58 
L 477.725345 -55.58 
L 479.689373 -55.58 
L 481.653401 -55.58 
L 483.617429 -55.58 
L 485.581457 -55.58 
L 487.545485 -55.58 
L 489.509513 -55.58 
L 491.473541 -55.58 
L 493.437569 -55.58 
L 495.401597 -55.58 
L 495.401597 -55.607241 
L 495.401597 -55.607241 
L 493.437569 -55.618978 
L 491.473541 -55.63495 
L 489.509513 -55.656323 
L 487.545485 -55.684445 
L 485.581457 -55.720821 
L 483.617429 -55.767066 
L 481.653401 -55.824833 
L 479.689373 -55.895711 
L 477.725345 -55.981104 
L 475.761317 -56.082078 
L 473.797289 -56.199202 
L 471.833261 -56.332386 
L 469.869233 -56.480733 
L 467.905205 -56.642427 
L 465.941177 -56.814669 
L 463.977149 -56.99368 
L 462.013121 -57.174786 
L 460.049092 -57.352582 
L 458.085064 -57.521183 
L 456.121036 -57.674538 
L 454.157008 -57.806793 
L 452.19298 -57.912673 
L 450.228952 -57.987855 
L 448.264924 -58.029288 
L 446.300896 -58.035447 
L 444.336868 -58.00648 
L 442.37284 -57.944255 
L 440.408812 -57.852288 
L 438.444784 -57.735569 
L 436.480756 -57.60032 
L 434.516728 -57.453677 
L 432.5527 -57.303373 
L 430.588672 -57.157406 
L 428.624644 -57.023755 
L 426.660616 -56.910137 
L 424.696588 -56.82383 
L 422.73256 -56.771562 
L 420.768532 -56.759452 
L 418.804504 -56.793002 
L 416.840476 -56.877126 
L 414.876448 -57.016187 
L 412.91242 -57.214053 
L 410.948392 -57.474136 
L 408.984364 -57.799422 
L 407.020335 -58.192482 
L 405.056307 -58.65546 
L 403.092279 -59.190029 
L 401.128251 -59.79732 
L 399.164223 -60.477816 
L 397.200195 -61.231208 
L 395.236167 -62.056213 
L 393.272139 -62.950368 
L 391.308111 -63.909797 
L 389.344083 -64.928996 
L 387.380055 -66.000649 
L 385.416027 -67.11552 
L 383.451999 -68.262465 
L 381.487971 -69.428591 
L 379.523943 -70.59961 
L 377.559915 -71.760368 
L 375.595887 -72.895563 
L 373.631859 -73.990598 
L 371.667831 -75.032519 
L 369.703803 -76.010937 
L 367.739775 -76.918868 
L 365.775747 -77.753373 
L 363.811719 -78.51594 
L 361.847691 -79.212547 
L 359.883663 -79.853382 
L 357.919635 -80.45226 
L 355.955607 -81.025764 
L 353.991578 -81.592238 
L 352.02755 -82.170707 
L 350.063522 -82.779856 
L 348.099494 -83.437184 
L 346.135466 -84.158389 
L 344.171438 -84.957046 
L 342.20741 -85.844584 
L 340.243382 -86.830507 
L 338.279354 -87.922797 
L 336.315326 -89.12839 
L 334.351298 -90.453614 
L 332.38727 -91.904485 
L 330.423242 -93.486779 
L 328.459214 -95.205841 
L 326.495186 -97.066131 
L 324.531158 -99.070568 
L 322.56713 -101.219766 
L 320.603102 -103.511305 
L 318.639074 -105.939174 
L 316.675046 -108.493542 
L 314.711018 -111.160956 
L 312.74699 -113.925037 
L 310.782962 -116.767672 
L 308.818934 -119.670618 
L 306.854906 -122.617404 
L 304.890878 -125.5953 
L 302.92685 -128.597164 
L 300.962821 -131.622904 
L 298.998793 -134.680372 
L 297.034765 -137.785508 
L 295.070737 -140.96167 
L 293.106709 -144.238134 
L 291.142681 -147.647859 
L 289.178653 -151.224682 
L 287.214625 -155.000183 
L 285.250597 -159.000494 
L 283.286569 -163.243345 
L 281.322541 -167.735638 
L 279.358513 -172.471772 
L 277.394485 -177.432911 
L 275.430457 -182.58726 
L 273.466429 -187.891368 
L 271.502401 -193.292309 
L 269.538373 -198.73057 
L 267.574345 -204.143324 
L 265.610317 -209.467789 
L 263.646289 -214.644281 
L 261.682261 -219.618679 
L 259.718233 -224.34401 
L 257.754205 -228.781021 
L 255.790177 -232.897706 
L 253.826149 -236.667913 
L 251.862121 -240.069261 
L 249.898093 -243.080737 
L 247.934064 -245.680359 
L 245.970036 -247.843325 
L 244.006008 -249.540996 
L 242.04198 -250.740946 
L 240.077952 -251.408172 
L 238.113924 -251.507381 
L 236.149896 -251.006109 
L 234.185868 -249.87829 
L 232.22184 -248.107823 
L 230.257812 -245.69166 
L 228.293784 -242.641979 
L 226.329756 -238.987142 
L 224.365728 -234.771267 
L 222.4017 -230.05243 
L 220.437672 -224.899684 
L 218.473644 -219.389216 
L 216.509616 -213.600067 
L 214.545588 -207.609859 
L 212.58156 -201.490963 
L 210.617532 -195.307446 
L 208.653504 -189.113018 
L 206.689476 -182.95009 
L 204.725448 -176.849877 
L 202.76142 -170.8334 
L 200.797392 -164.913161 
L 198.833364 -159.095212 
L 196.869335 -153.381346 
L 194.905307 -147.771188 
L 192.941279 -142.264002 
L 190.977251 -136.860102 
L 189.013223 -131.561829 
L 187.049195 -126.374107 
L 185.085167 -121.304614 
L 183.121139 -116.363652 
L 181.157111 -111.563782 
L 179.193083 -106.919295 
L 177.229055 -102.445569 
L 175.265027 -98.158366 
L 173.300999 -94.073098 
L 171.336971 -90.204091 
L 169.372943 -86.563883 
L 167.408915 -83.16258 
L 165.444887 -80.007324 
L 163.480859 -77.101885 
L 161.516831 -74.446434 
L 159.552803 -72.037498 
L 157.588775 -69.868116 
L 155.624747 -67.928183 
L 153.660719 -66.204947 
L 151.696691 -64.683624 
L 149.732663 -63.348074 
L 147.768635 -62.181476 
L 145.804607 -61.166964 
L 143.840578 -60.28816 
L 141.87655 -59.529593 
L 139.912522 -58.876988 
L 137.948494 -58.317414 
L 135.984466 -57.839328 
L 134.020438 -57.432523 
L 132.05641 -57.088012 
L 130.092382 -56.797884 
L 128.128354 -56.555147 
L 126.164326 -56.353586 
L 124.200298 -56.187641 
L 122.23627 -56.052312 
L 120.272242 -55.943093 
L 118.308214 -55.855931 
L 116.344186 -55.787197 
L 114.380158 -55.733673 
L 112.41613 -55.692536 
L 110.452102 -55.661346 
L 108.488074 -55.638025 
L 106.524046 -55.620835 
L 104.560018 -55.608346 
z
" id="maa06fd48ed" style="stroke:#dc143c;"/>
    </defs>
    <g clip-path="url(#p196977d7c5)">
     <use style="fill:#dc143c;fill-opacity:0.5;stroke:#dc143c;" x="0" xlink:href="#maa06fd48ed" y="864"/>
    </g>
   </g>
   <g id="patch_19">
    <path d="M 36 808.42 
L 36 602.69625 
" style="fill:none;stroke:#262626;stroke-linecap:square;stroke-linejoin:miter;stroke-width:1.25;"/>
   </g>
   <g id="patch_20">
    <path d="M 818.859963 808.42 
L 818.859963 602.69625 
" style="fill:none;stroke:#262626;stroke-linecap:square;stroke-linejoin:miter;stroke-width:1.25;"/>
   </g>
   <g id="patch_21">
    <path d="M 36 808.42 
L 818.859963 808.42 
" style="fill:none;stroke:#262626;stroke-linecap:square;stroke-linejoin:miter;stroke-width:1.25;"/>
   </g>
   <g id="patch_22">
    <path d="M 36 602.69625 
L 818.859963 602.69625 
" style="fill:none;stroke:#262626;stroke-linecap:square;stroke-linejoin:miter;stroke-width:1.25;"/>
   </g>
   <g id="text_28">
    <!-- How Body Mass Index Impacts on Experiencing Stroke? -->
    <g style="fill:#262626;" transform="translate(278.032794 596.69625)scale(0.12 -0.12)">
     <defs>
      <path d="M 469 0 
L 469 4581 
L 2188 4581 
Q 2713 4581 3030 4442 
Q 3347 4303 3526 4014 
Q 3706 3725 3706 3409 
Q 3706 3116 3547 2856 
Q 3388 2597 3066 2438 
Q 3481 2316 3704 2022 
Q 3928 1728 3928 1328 
Q 3928 1006 3792 729 
Q 3656 453 3456 303 
Q 3256 153 2954 76 
Q 2653 0 2216 0 
L 469 0 
z
M 1075 2656 
L 2066 2656 
Q 2469 2656 2644 2709 
Q 2875 2778 2992 2937 
Q 3109 3097 3109 3338 
Q 3109 3566 3000 3739 
Q 2891 3913 2687 3977 
Q 2484 4041 1991 4041 
L 1075 4041 
L 1075 2656 
z
M 1075 541 
L 2216 541 
Q 2509 541 2628 563 
Q 2838 600 2978 687 
Q 3119 775 3209 942 
Q 3300 1109 3300 1328 
Q 3300 1584 3169 1773 
Q 3038 1963 2805 2039 
Q 2572 2116 2134 2116 
L 1075 2116 
L 1075 541 
z
" id="ArialMT-42" transform="scale(0.015625)"/>
      <path d="M 2575 0 
L 2575 419 
Q 2259 -75 1647 -75 
Q 1250 -75 917 144 
Q 584 363 401 755 
Q 219 1147 219 1656 
Q 219 2153 384 2558 
Q 550 2963 881 3178 
Q 1213 3394 1622 3394 
Q 1922 3394 2156 3267 
Q 2391 3141 2538 2938 
L 2538 4581 
L 3097 4581 
L 3097 0 
L 2575 0 
z
M 797 1656 
Q 797 1019 1065 703 
Q 1334 388 1700 388 
Q 2069 388 2326 689 
Q 2584 991 2584 1609 
Q 2584 2291 2321 2609 
Q 2059 2928 1675 2928 
Q 1300 2928 1048 2622 
Q 797 2316 797 1656 
z
" id="ArialMT-64" transform="scale(0.015625)"/>
      <path d="M 397 -1278 
L 334 -750 
Q 519 -800 656 -800 
Q 844 -800 956 -737 
Q 1069 -675 1141 -563 
Q 1194 -478 1313 -144 
Q 1328 -97 1363 -6 
L 103 3319 
L 709 3319 
L 1400 1397 
Q 1534 1031 1641 628 
Q 1738 1016 1872 1384 
L 2581 3319 
L 3144 3319 
L 1881 -56 
Q 1678 -603 1566 -809 
Q 1416 -1088 1222 -1217 
Q 1028 -1347 759 -1347 
Q 597 -1347 397 -1278 
z
" id="ArialMT-79" transform="scale(0.015625)"/>
      <path d="M 475 0 
L 475 4581 
L 1388 4581 
L 2472 1338 
Q 2622 884 2691 659 
Q 2769 909 2934 1394 
L 4031 4581 
L 4847 4581 
L 4847 0 
L 4263 0 
L 4263 3834 
L 2931 0 
L 2384 0 
L 1059 3900 
L 1059 0 
L 475 0 
z
" id="ArialMT-4d" transform="scale(0.015625)"/>
     </defs>
     <use xlink:href="#ArialMT-48"/>
     <use x="72.216797" xlink:href="#ArialMT-6f"/>
     <use x="127.832031" xlink:href="#ArialMT-77"/>
     <use x="200.048828" xlink:href="#ArialMT-20"/>
     <use x="227.832031" xlink:href="#ArialMT-42"/>
     <use x="294.53125" xlink:href="#ArialMT-6f"/>
     <use x="350.146484" xlink:href="#ArialMT-64"/>
     <use x="405.761719" xlink:href="#ArialMT-79"/>
     <use x="455.761719" xlink:href="#ArialMT-20"/>
     <use x="483.544922" xlink:href="#ArialMT-4d"/>
     <use x="566.845703" xlink:href="#ArialMT-61"/>
     <use x="622.460938" xlink:href="#ArialMT-73"/>
     <use x="672.460938" xlink:href="#ArialMT-73"/>
     <use x="722.460938" xlink:href="#ArialMT-20"/>
     <use x="750.244141" xlink:href="#ArialMT-49"/>
     <use x="778.027344" xlink:href="#ArialMT-6e"/>
     <use x="833.642578" xlink:href="#ArialMT-64"/>
     <use x="889.257812" xlink:href="#ArialMT-65"/>
     <use x="944.873047" xlink:href="#ArialMT-78"/>
     <use x="994.873047" xlink:href="#ArialMT-20"/>
     <use x="1022.65625" xlink:href="#ArialMT-49"/>
     <use x="1050.439453" xlink:href="#ArialMT-6d"/>
     <use x="1133.740234" xlink:href="#ArialMT-70"/>
     <use x="1189.355469" xlink:href="#ArialMT-61"/>
     <use x="1244.970703" xlink:href="#ArialMT-63"/>
     <use x="1294.970703" xlink:href="#ArialMT-74"/>
     <use x="1322.753906" xlink:href="#ArialMT-73"/>
     <use x="1372.753906" xlink:href="#ArialMT-20"/>
     <use x="1400.537109" xlink:href="#ArialMT-6f"/>
     <use x="1456.152344" xlink:href="#ArialMT-6e"/>
     <use x="1511.767578" xlink:href="#ArialMT-20"/>
     <use x="1539.550781" xlink:href="#ArialMT-45"/>
     <use x="1606.25" xlink:href="#ArialMT-78"/>
     <use x="1656.25" xlink:href="#ArialMT-70"/>
     <use x="1711.865234" xlink:href="#ArialMT-65"/>
     <use x="1767.480469" xlink:href="#ArialMT-72"/>
     <use x="1800.78125" xlink:href="#ArialMT-69"/>
     <use x="1822.998047" xlink:href="#ArialMT-65"/>
     <use x="1878.613281" xlink:href="#ArialMT-6e"/>
     <use x="1934.228516" xlink:href="#ArialMT-63"/>
     <use x="1984.228516" xlink:href="#ArialMT-69"/>
     <use x="2006.445312" xlink:href="#ArialMT-6e"/>
     <use x="2062.060547" xlink:href="#ArialMT-67"/>
     <use x="2117.675781" xlink:href="#ArialMT-20"/>
     <use x="2145.458984" xlink:href="#ArialMT-53"/>
     <use x="2212.158203" xlink:href="#ArialMT-74"/>
     <use x="2239.941406" xlink:href="#ArialMT-72"/>
     <use x="2273.242188" xlink:href="#ArialMT-6f"/>
     <use x="2328.857422" xlink:href="#ArialMT-6b"/>
     <use x="2378.857422" xlink:href="#ArialMT-65"/>
     <use x="2434.472656" xlink:href="#ArialMT-3f"/>
    </g>
   </g>
   <g id="legend_3">
    <g id="patch_23">
     <path d="M 758.009338 659.090313 
L 811.159963 659.090313 
Q 813.359963 659.090313 813.359963 656.890313 
L 813.359963 610.39625 
Q 813.359963 608.19625 811.159963 608.19625 
L 758.009338 608.19625 
Q 755.809338 608.19625 755.809338 610.39625 
L 755.809338 656.890313 
Q 755.809338 659.090313 758.009338 659.090313 
z
" style="fill:#ffffff;opacity:0.8;stroke:#cccccc;stroke-linejoin:miter;"/>
    </g>
    <g id="text_29">
     <!-- Stroke -->
     <g style="fill:#262626;" transform="translate(767.24465 621.185625)scale(0.12 -0.12)">
      <use xlink:href="#ArialMT-53"/>
      <use x="66.699219" xlink:href="#ArialMT-74"/>
      <use x="94.482422" xlink:href="#ArialMT-72"/>
      <use x="127.783203" xlink:href="#ArialMT-6f"/>
      <use x="183.398438" xlink:href="#ArialMT-6b"/>
      <use x="233.398438" xlink:href="#ArialMT-65"/>
     </g>
    </g>
    <g id="patch_24">
     <path d="M 760.209338 636.944219 
L 782.209338 636.944219 
L 782.209338 629.244219 
L 760.209338 629.244219 
z
" style="fill:#87ceeb;fill-opacity:0.5;stroke:#87ceeb;stroke-linejoin:miter;"/>
    </g>
    <g id="text_30">
     <!-- No -->
     <g style="fill:#262626;" transform="translate(791.009338 636.944219)scale(0.11 -0.11)">
      <use xlink:href="#ArialMT-4e"/>
      <use x="72.216797" xlink:href="#ArialMT-6f"/>
     </g>
    </g>
    <g id="patch_25">
     <path d="M 760.209338 652.504063 
L 782.209338 652.504063 
L 782.209338 644.804063 
L 760.209338 644.804063 
z
" style="fill:#dc143c;fill-opacity:0.5;stroke:#dc143c;stroke-linejoin:miter;"/>
    </g>
    <g id="text_31">
     <!-- Yes -->
     <g style="fill:#262626;" transform="translate(791.009338 652.504063)scale(0.11 -0.11)">
      <use xlink:href="#ArialMT-59"/>
      <use x="57.574219" xlink:href="#ArialMT-65"/>
      <use x="113.189453" xlink:href="#ArialMT-73"/>
     </g>
    </g>
   </g>
  </g>
 </g>
 <defs>
  <clipPath id="p96fde1b15b">
   <rect height="205.72375" width="782.859963" x="36" y="50.69625"/>
  </clipPath>
  <clipPath id="pa96bed8f51">
   <rect height="205.72375" width="782.859963" x="36" y="326.69625"/>
  </clipPath>
  <clipPath id="p196977d7c5">
   <rect height="205.72375" width="782.859963" x="36" y="602.69625"/>
  </clipPath>
 </defs>
</svg>
