<?xml version="1.0" encoding="utf-8" standalone="no"?>
<!DOCTYPE svg PUBLIC "-//W3C//DTD SVG 1.1//EN"
  "http://www.w3.org/Graphics/SVG/1.1/DTD/svg11.dtd">
<svg height="432pt" version="1.1" viewBox="0 0 864 432" width="864pt" xmlns="http://www.w3.org/2000/svg" xmlns:xlink="http://www.w3.org/1999/xlink">
 <metadata>
  <rdf:RDF xmlns:cc="http://creativecommons.org/ns#" xmlns:dc="http://purl.org/dc/elements/1.1/" xmlns:rdf="http://www.w3.org/1999/02/22-rdf-syntax-ns#">
   <cc:Work>
    <dc:type rdf:resource="http://purl.org/dc/dcmitype/StillImage"/>
    <dc:date>2022-06-19T17:49:46.773359</dc:date>
    <dc:format>image/svg+xml</dc:format>
    <dc:creator>
     <cc:Agent>
      <dc:title>Matplotlib v3.4.3, https://matplotlib.org/</dc:title>
     </cc:Agent>
    </dc:creator>
   </cc:Work>
  </rdf:RDF>
 </metadata>
 <defs>
  <style type="text/css">*{stroke-linecap:butt;stroke-linejoin:round;}</style>
 </defs>
 <g id="figure_1">
  <g id="patch_1">
   <path d="M 0 432 
L 864 432 
L 864 0 
L 0 0 
z
" style="fill:#ffffff;"/>
  </g>
  <g id="axes_1">
   <g id="patch_2">
    <path d="M 69.98 376.42 
L 276 376.42 
L 276 63.22425 
L 69.98 63.22425 
z
" style="fill:#ffffff;"/>
   </g>
   <g id="matplotlib.axis_1">
    <g id="xtick_1">
     <g id="text_1">
      <!-- Female -->
      <g style="fill:#262626;" transform="translate(103.146797 393.793594)scale(0.11 -0.11)">
       <defs>
        <path d="M 525 0 
L 525 4581 
L 3616 4581 
L 3616 4041 
L 1131 4041 
L 1131 2622 
L 3281 2622 
L 3281 2081 
L 1131 2081 
L 1131 0 
L 525 0 
z
" id="ArialMT-46" transform="scale(0.015625)"/>
        <path d="M 2694 1069 
L 3275 997 
Q 3138 488 2766 206 
Q 2394 -75 1816 -75 
Q 1088 -75 661 373 
Q 234 822 234 1631 
Q 234 2469 665 2931 
Q 1097 3394 1784 3394 
Q 2450 3394 2872 2941 
Q 3294 2488 3294 1666 
Q 3294 1616 3291 1516 
L 816 1516 
Q 847 969 1125 678 
Q 1403 388 1819 388 
Q 2128 388 2347 550 
Q 2566 713 2694 1069 
z
M 847 1978 
L 2700 1978 
Q 2663 2397 2488 2606 
Q 2219 2931 1791 2931 
Q 1403 2931 1139 2672 
Q 875 2413 847 1978 
z
" id="ArialMT-65" transform="scale(0.015625)"/>
        <path d="M 422 0 
L 422 3319 
L 925 3319 
L 925 2853 
Q 1081 3097 1340 3245 
Q 1600 3394 1931 3394 
Q 2300 3394 2536 3241 
Q 2772 3088 2869 2813 
Q 3263 3394 3894 3394 
Q 4388 3394 4653 3120 
Q 4919 2847 4919 2278 
L 4919 0 
L 4359 0 
L 4359 2091 
Q 4359 2428 4304 2576 
Q 4250 2725 4106 2815 
Q 3963 2906 3769 2906 
Q 3419 2906 3187 2673 
Q 2956 2441 2956 1928 
L 2956 0 
L 2394 0 
L 2394 2156 
Q 2394 2531 2256 2718 
Q 2119 2906 1806 2906 
Q 1569 2906 1367 2781 
Q 1166 2656 1075 2415 
Q 984 2175 984 1722 
L 984 0 
L 422 0 
z
" id="ArialMT-6d" transform="scale(0.015625)"/>
        <path d="M 2588 409 
Q 2275 144 1986 34 
Q 1697 -75 1366 -75 
Q 819 -75 525 192 
Q 231 459 231 875 
Q 231 1119 342 1320 
Q 453 1522 633 1644 
Q 813 1766 1038 1828 
Q 1203 1872 1538 1913 
Q 2219 1994 2541 2106 
Q 2544 2222 2544 2253 
Q 2544 2597 2384 2738 
Q 2169 2928 1744 2928 
Q 1347 2928 1158 2789 
Q 969 2650 878 2297 
L 328 2372 
Q 403 2725 575 2942 
Q 747 3159 1072 3276 
Q 1397 3394 1825 3394 
Q 2250 3394 2515 3294 
Q 2781 3194 2906 3042 
Q 3031 2891 3081 2659 
Q 3109 2516 3109 2141 
L 3109 1391 
Q 3109 606 3145 398 
Q 3181 191 3288 0 
L 2700 0 
Q 2613 175 2588 409 
z
M 2541 1666 
Q 2234 1541 1622 1453 
Q 1275 1403 1131 1340 
Q 988 1278 909 1158 
Q 831 1038 831 891 
Q 831 666 1001 516 
Q 1172 366 1500 366 
Q 1825 366 2078 508 
Q 2331 650 2450 897 
Q 2541 1088 2541 1459 
L 2541 1666 
z
" id="ArialMT-61" transform="scale(0.015625)"/>
        <path d="M 409 0 
L 409 4581 
L 972 4581 
L 972 0 
L 409 0 
z
" id="ArialMT-6c" transform="scale(0.015625)"/>
       </defs>
       <use xlink:href="#ArialMT-46"/>
       <use x="61.083984" xlink:href="#ArialMT-65"/>
       <use x="116.699219" xlink:href="#ArialMT-6d"/>
       <use x="200" xlink:href="#ArialMT-61"/>
       <use x="255.615234" xlink:href="#ArialMT-6c"/>
       <use x="277.832031" xlink:href="#ArialMT-65"/>
      </g>
     </g>
    </g>
    <g id="xtick_2">
     <g id="text_2">
      <!-- Male -->
      <g style="fill:#262626;" transform="translate(212.574609 393.793594)scale(0.11 -0.11)">
       <defs>
        <path d="M 475 0 
L 475 4581 
L 1388 4581 
L 2472 1338 
Q 2622 884 2691 659 
Q 2769 909 2934 1394 
L 4031 4581 
L 4847 4581 
L 4847 0 
L 4263 0 
L 4263 3834 
L 2931 0 
L 2384 0 
L 1059 3900 
L 1059 0 
L 475 0 
z
" id="ArialMT-4d" transform="scale(0.015625)"/>
       </defs>
       <use xlink:href="#ArialMT-4d"/>
       <use x="83.300781" xlink:href="#ArialMT-61"/>
       <use x="138.916016" xlink:href="#ArialMT-6c"/>
       <use x="161.132812" xlink:href="#ArialMT-65"/>
      </g>
     </g>
    </g>
   </g>
   <g id="matplotlib.axis_2">
    <g id="ytick_1">
     <g id="text_3">
      <!-- 0 -->
      <g style="fill:#262626;" transform="translate(54.362969 380.356797)scale(0.11 -0.11)">
       <defs>
        <path d="M 266 2259 
Q 266 3072 433 3567 
Q 600 4063 929 4331 
Q 1259 4600 1759 4600 
Q 2128 4600 2406 4451 
Q 2684 4303 2865 4023 
Q 3047 3744 3150 3342 
Q 3253 2941 3253 2259 
Q 3253 1453 3087 958 
Q 2922 463 2592 192 
Q 2263 -78 1759 -78 
Q 1097 -78 719 397 
Q 266 969 266 2259 
z
M 844 2259 
Q 844 1131 1108 757 
Q 1372 384 1759 384 
Q 2147 384 2411 759 
Q 2675 1134 2675 2259 
Q 2675 3391 2411 3762 
Q 2147 4134 1753 4134 
Q 1366 4134 1134 3806 
Q 844 3388 844 2259 
z
" id="ArialMT-30" transform="scale(0.015625)"/>
       </defs>
       <use xlink:href="#ArialMT-30"/>
      </g>
     </g>
    </g>
    <g id="ytick_2">
     <g id="text_4">
      <!-- 500 -->
      <g style="fill:#262626;" transform="translate(42.128906 328.081706)scale(0.11 -0.11)">
       <defs>
        <path d="M 266 1200 
L 856 1250 
Q 922 819 1161 601 
Q 1400 384 1738 384 
Q 2144 384 2425 690 
Q 2706 997 2706 1503 
Q 2706 1984 2436 2262 
Q 2166 2541 1728 2541 
Q 1456 2541 1237 2417 
Q 1019 2294 894 2097 
L 366 2166 
L 809 4519 
L 3088 4519 
L 3088 3981 
L 1259 3981 
L 1013 2750 
Q 1425 3038 1878 3038 
Q 2478 3038 2890 2622 
Q 3303 2206 3303 1553 
Q 3303 931 2941 478 
Q 2500 -78 1738 -78 
Q 1113 -78 717 272 
Q 322 622 266 1200 
z
" id="ArialMT-35" transform="scale(0.015625)"/>
       </defs>
       <use xlink:href="#ArialMT-35"/>
       <use x="55.615234" xlink:href="#ArialMT-30"/>
       <use x="111.230469" xlink:href="#ArialMT-30"/>
      </g>
     </g>
    </g>
    <g id="ytick_3">
     <g id="text_5">
      <!-- 1000 -->
      <g style="fill:#262626;" transform="translate(36.011875 275.806616)scale(0.11 -0.11)">
       <defs>
        <path d="M 2384 0 
L 1822 0 
L 1822 3584 
Q 1619 3391 1289 3197 
Q 959 3003 697 2906 
L 697 3450 
Q 1169 3672 1522 3987 
Q 1875 4303 2022 4600 
L 2384 4600 
L 2384 0 
z
" id="ArialMT-31" transform="scale(0.015625)"/>
       </defs>
       <use xlink:href="#ArialMT-31"/>
       <use x="55.615234" xlink:href="#ArialMT-30"/>
       <use x="111.230469" xlink:href="#ArialMT-30"/>
       <use x="166.845703" xlink:href="#ArialMT-30"/>
      </g>
     </g>
    </g>
    <g id="ytick_4">
     <g id="text_6">
      <!-- 1500 -->
      <g style="fill:#262626;" transform="translate(36.011875 223.531525)scale(0.11 -0.11)">
       <use xlink:href="#ArialMT-31"/>
       <use x="55.615234" xlink:href="#ArialMT-35"/>
       <use x="111.230469" xlink:href="#ArialMT-30"/>
       <use x="166.845703" xlink:href="#ArialMT-30"/>
      </g>
     </g>
    </g>
    <g id="ytick_5">
     <g id="text_7">
      <!-- 2000 -->
      <g style="fill:#262626;" transform="translate(36.011875 171.256435)scale(0.11 -0.11)">
       <defs>
        <path d="M 3222 541 
L 3222 0 
L 194 0 
Q 188 203 259 391 
Q 375 700 629 1000 
Q 884 1300 1366 1694 
Q 2113 2306 2375 2664 
Q 2638 3022 2638 3341 
Q 2638 3675 2398 3904 
Q 2159 4134 1775 4134 
Q 1369 4134 1125 3890 
Q 881 3647 878 3216 
L 300 3275 
Q 359 3922 746 4261 
Q 1134 4600 1788 4600 
Q 2447 4600 2831 4234 
Q 3216 3869 3216 3328 
Q 3216 3053 3103 2787 
Q 2991 2522 2730 2228 
Q 2469 1934 1863 1422 
Q 1356 997 1212 845 
Q 1069 694 975 541 
L 3222 541 
z
" id="ArialMT-32" transform="scale(0.015625)"/>
       </defs>
       <use xlink:href="#ArialMT-32"/>
       <use x="55.615234" xlink:href="#ArialMT-30"/>
       <use x="111.230469" xlink:href="#ArialMT-30"/>
       <use x="166.845703" xlink:href="#ArialMT-30"/>
      </g>
     </g>
    </g>
    <g id="ytick_6">
     <g id="text_8">
      <!-- 2500 -->
      <g style="fill:#262626;" transform="translate(36.011875 118.981344)scale(0.11 -0.11)">
       <use xlink:href="#ArialMT-32"/>
       <use x="55.615234" xlink:href="#ArialMT-35"/>
       <use x="111.230469" xlink:href="#ArialMT-30"/>
       <use x="166.845703" xlink:href="#ArialMT-30"/>
      </g>
     </g>
    </g>
   </g>
   <g id="patch_3">
    <path clip-path="url(#pfba7fd7d3c)" d="M 80.281 376.42 
L 162.689 376.42 
L 162.689 78.138333 
L 80.281 78.138333 
z
" style="fill:#94c9de;stroke:#ffffff;stroke-linejoin:miter;"/>
   </g>
   <g id="patch_4">
    <path clip-path="url(#pfba7fd7d3c)" d="M 183.291 376.42 
L 265.699 376.42 
L 265.699 166.587787 
L 183.291 166.587787 
z
" style="fill:#94c9de;stroke:#ffffff;stroke-linejoin:miter;"/>
   </g>
   <g id="patch_5">
    <path clip-path="url(#pfba7fd7d3c)" d="M 80.281 376.42 
L 162.689 376.42 
L 162.689 361.678424 
L 80.281 361.678424 
z
" style="fill:#c32d4b;stroke:#ffffff;stroke-linejoin:miter;"/>
   </g>
   <g id="patch_6">
    <path clip-path="url(#pfba7fd7d3c)" d="M 183.291 376.42 
L 265.699 376.42 
L 265.699 365.12858 
L 183.291 365.12858 
z
" style="fill:#c32d4b;stroke:#ffffff;stroke-linejoin:miter;"/>
   </g>
   <g id="patch_7">
    <path d="M 69.98 376.42 
L 69.98 63.22425 
" style="fill:none;stroke:#262626;stroke-linecap:square;stroke-linejoin:miter;stroke-width:1.25;"/>
   </g>
   <g id="patch_8">
    <path d="M 276 376.42 
L 276 63.22425 
" style="fill:none;stroke:#262626;stroke-linecap:square;stroke-linejoin:miter;stroke-width:1.25;"/>
   </g>
   <g id="patch_9">
    <path d="M 69.98 376.42 
L 276 376.42 
" style="fill:none;stroke:#262626;stroke-linecap:square;stroke-linejoin:miter;stroke-width:1.25;"/>
   </g>
   <g id="patch_10">
    <path d="M 69.98 63.22425 
L 276 63.22425 
" style="fill:none;stroke:#262626;stroke-linecap:square;stroke-linejoin:miter;stroke-width:1.25;"/>
   </g>
   <g id="text_9">
    <!-- Stroke vs Non-Stroke Population -->
    <g style="fill:#262626;" transform="translate(85.950625 44.532)scale(0.12 -0.12)">
     <defs>
      <path d="M 288 1472 
L 859 1522 
Q 900 1178 1048 958 
Q 1197 738 1509 602 
Q 1822 466 2213 466 
Q 2559 466 2825 569 
Q 3091 672 3220 851 
Q 3350 1031 3350 1244 
Q 3350 1459 3225 1620 
Q 3100 1781 2813 1891 
Q 2628 1963 1997 2114 
Q 1366 2266 1113 2400 
Q 784 2572 623 2826 
Q 463 3081 463 3397 
Q 463 3744 659 4045 
Q 856 4347 1234 4503 
Q 1613 4659 2075 4659 
Q 2584 4659 2973 4495 
Q 3363 4331 3572 4012 
Q 3781 3694 3797 3291 
L 3216 3247 
Q 3169 3681 2898 3903 
Q 2628 4125 2100 4125 
Q 1550 4125 1298 3923 
Q 1047 3722 1047 3438 
Q 1047 3191 1225 3031 
Q 1400 2872 2139 2705 
Q 2878 2538 3153 2413 
Q 3553 2228 3743 1945 
Q 3934 1663 3934 1294 
Q 3934 928 3725 604 
Q 3516 281 3123 101 
Q 2731 -78 2241 -78 
Q 1619 -78 1198 103 
Q 778 284 539 648 
Q 300 1013 288 1472 
z
" id="ArialMT-53" transform="scale(0.015625)"/>
      <path d="M 1650 503 
L 1731 6 
Q 1494 -44 1306 -44 
Q 1000 -44 831 53 
Q 663 150 594 308 
Q 525 466 525 972 
L 525 2881 
L 113 2881 
L 113 3319 
L 525 3319 
L 525 4141 
L 1084 4478 
L 1084 3319 
L 1650 3319 
L 1650 2881 
L 1084 2881 
L 1084 941 
Q 1084 700 1114 631 
Q 1144 563 1211 522 
Q 1278 481 1403 481 
Q 1497 481 1650 503 
z
" id="ArialMT-74" transform="scale(0.015625)"/>
      <path d="M 416 0 
L 416 3319 
L 922 3319 
L 922 2816 
Q 1116 3169 1280 3281 
Q 1444 3394 1641 3394 
Q 1925 3394 2219 3213 
L 2025 2691 
Q 1819 2813 1613 2813 
Q 1428 2813 1281 2702 
Q 1134 2591 1072 2394 
Q 978 2094 978 1738 
L 978 0 
L 416 0 
z
" id="ArialMT-72" transform="scale(0.015625)"/>
      <path d="M 213 1659 
Q 213 2581 725 3025 
Q 1153 3394 1769 3394 
Q 2453 3394 2887 2945 
Q 3322 2497 3322 1706 
Q 3322 1066 3130 698 
Q 2938 331 2570 128 
Q 2203 -75 1769 -75 
Q 1072 -75 642 372 
Q 213 819 213 1659 
z
M 791 1659 
Q 791 1022 1069 705 
Q 1347 388 1769 388 
Q 2188 388 2466 706 
Q 2744 1025 2744 1678 
Q 2744 2294 2464 2611 
Q 2184 2928 1769 2928 
Q 1347 2928 1069 2612 
Q 791 2297 791 1659 
z
" id="ArialMT-6f" transform="scale(0.015625)"/>
      <path d="M 425 0 
L 425 4581 
L 988 4581 
L 988 1969 
L 2319 3319 
L 3047 3319 
L 1778 2088 
L 3175 0 
L 2481 0 
L 1384 1697 
L 988 1316 
L 988 0 
L 425 0 
z
" id="ArialMT-6b" transform="scale(0.015625)"/>
      <path id="ArialMT-20" transform="scale(0.015625)"/>
      <path d="M 1344 0 
L 81 3319 
L 675 3319 
L 1388 1331 
Q 1503 1009 1600 663 
Q 1675 925 1809 1294 
L 2547 3319 
L 3125 3319 
L 1869 0 
L 1344 0 
z
" id="ArialMT-76" transform="scale(0.015625)"/>
      <path d="M 197 991 
L 753 1078 
Q 800 744 1014 566 
Q 1228 388 1613 388 
Q 2000 388 2187 545 
Q 2375 703 2375 916 
Q 2375 1106 2209 1216 
Q 2094 1291 1634 1406 
Q 1016 1563 777 1677 
Q 538 1791 414 1992 
Q 291 2194 291 2438 
Q 291 2659 392 2848 
Q 494 3038 669 3163 
Q 800 3259 1026 3326 
Q 1253 3394 1513 3394 
Q 1903 3394 2198 3281 
Q 2494 3169 2634 2976 
Q 2775 2784 2828 2463 
L 2278 2388 
Q 2241 2644 2061 2787 
Q 1881 2931 1553 2931 
Q 1166 2931 1000 2803 
Q 834 2675 834 2503 
Q 834 2394 903 2306 
Q 972 2216 1119 2156 
Q 1203 2125 1616 2013 
Q 2213 1853 2448 1751 
Q 2684 1650 2818 1456 
Q 2953 1263 2953 975 
Q 2953 694 2789 445 
Q 2625 197 2315 61 
Q 2006 -75 1616 -75 
Q 969 -75 630 194 
Q 291 463 197 991 
z
" id="ArialMT-73" transform="scale(0.015625)"/>
      <path d="M 488 0 
L 488 4581 
L 1109 4581 
L 3516 984 
L 3516 4581 
L 4097 4581 
L 4097 0 
L 3475 0 
L 1069 3600 
L 1069 0 
L 488 0 
z
" id="ArialMT-4e" transform="scale(0.015625)"/>
      <path d="M 422 0 
L 422 3319 
L 928 3319 
L 928 2847 
Q 1294 3394 1984 3394 
Q 2284 3394 2536 3286 
Q 2788 3178 2913 3003 
Q 3038 2828 3088 2588 
Q 3119 2431 3119 2041 
L 3119 0 
L 2556 0 
L 2556 2019 
Q 2556 2363 2490 2533 
Q 2425 2703 2258 2804 
Q 2091 2906 1866 2906 
Q 1506 2906 1245 2678 
Q 984 2450 984 1813 
L 984 0 
L 422 0 
z
" id="ArialMT-6e" transform="scale(0.015625)"/>
      <path d="M 203 1375 
L 203 1941 
L 1931 1941 
L 1931 1375 
L 203 1375 
z
" id="ArialMT-2d" transform="scale(0.015625)"/>
      <path d="M 494 0 
L 494 4581 
L 2222 4581 
Q 2678 4581 2919 4538 
Q 3256 4481 3484 4323 
Q 3713 4166 3852 3881 
Q 3991 3597 3991 3256 
Q 3991 2672 3619 2267 
Q 3247 1863 2275 1863 
L 1100 1863 
L 1100 0 
L 494 0 
z
M 1100 2403 
L 2284 2403 
Q 2872 2403 3119 2622 
Q 3366 2841 3366 3238 
Q 3366 3525 3220 3729 
Q 3075 3934 2838 4000 
Q 2684 4041 2272 4041 
L 1100 4041 
L 1100 2403 
z
" id="ArialMT-50" transform="scale(0.015625)"/>
      <path d="M 422 -1272 
L 422 3319 
L 934 3319 
L 934 2888 
Q 1116 3141 1344 3267 
Q 1572 3394 1897 3394 
Q 2322 3394 2647 3175 
Q 2972 2956 3137 2557 
Q 3303 2159 3303 1684 
Q 3303 1175 3120 767 
Q 2938 359 2589 142 
Q 2241 -75 1856 -75 
Q 1575 -75 1351 44 
Q 1128 163 984 344 
L 984 -1272 
L 422 -1272 
z
M 931 1641 
Q 931 1000 1190 694 
Q 1450 388 1819 388 
Q 2194 388 2461 705 
Q 2728 1022 2728 1688 
Q 2728 2322 2467 2637 
Q 2206 2953 1844 2953 
Q 1484 2953 1207 2617 
Q 931 2281 931 1641 
z
" id="ArialMT-70" transform="scale(0.015625)"/>
      <path d="M 2597 0 
L 2597 488 
Q 2209 -75 1544 -75 
Q 1250 -75 995 37 
Q 741 150 617 320 
Q 494 491 444 738 
Q 409 903 409 1263 
L 409 3319 
L 972 3319 
L 972 1478 
Q 972 1038 1006 884 
Q 1059 663 1231 536 
Q 1403 409 1656 409 
Q 1909 409 2131 539 
Q 2353 669 2445 892 
Q 2538 1116 2538 1541 
L 2538 3319 
L 3100 3319 
L 3100 0 
L 2597 0 
z
" id="ArialMT-75" transform="scale(0.015625)"/>
      <path d="M 425 3934 
L 425 4581 
L 988 4581 
L 988 3934 
L 425 3934 
z
M 425 0 
L 425 3319 
L 988 3319 
L 988 0 
L 425 0 
z
" id="ArialMT-69" transform="scale(0.015625)"/>
     </defs>
     <use xlink:href="#ArialMT-53"/>
     <use x="66.699219" xlink:href="#ArialMT-74"/>
     <use x="94.482422" xlink:href="#ArialMT-72"/>
     <use x="127.783203" xlink:href="#ArialMT-6f"/>
     <use x="183.398438" xlink:href="#ArialMT-6b"/>
     <use x="233.398438" xlink:href="#ArialMT-65"/>
     <use x="289.013672" xlink:href="#ArialMT-20"/>
     <use x="316.796875" xlink:href="#ArialMT-76"/>
     <use x="366.796875" xlink:href="#ArialMT-73"/>
     <use x="416.796875" xlink:href="#ArialMT-20"/>
     <use x="444.580078" xlink:href="#ArialMT-4e"/>
     <use x="516.796875" xlink:href="#ArialMT-6f"/>
     <use x="572.412109" xlink:href="#ArialMT-6e"/>
     <use x="628.027344" xlink:href="#ArialMT-2d"/>
     <use x="661.328125" xlink:href="#ArialMT-53"/>
     <use x="728.027344" xlink:href="#ArialMT-74"/>
     <use x="755.810547" xlink:href="#ArialMT-72"/>
     <use x="789.111328" xlink:href="#ArialMT-6f"/>
     <use x="844.726562" xlink:href="#ArialMT-6b"/>
     <use x="894.726562" xlink:href="#ArialMT-65"/>
     <use x="950.341797" xlink:href="#ArialMT-20"/>
     <use x="978.125" xlink:href="#ArialMT-50"/>
     <use x="1044.824219" xlink:href="#ArialMT-6f"/>
     <use x="1100.439453" xlink:href="#ArialMT-70"/>
     <use x="1156.054688" xlink:href="#ArialMT-75"/>
     <use x="1211.669922" xlink:href="#ArialMT-6c"/>
     <use x="1233.886719" xlink:href="#ArialMT-61"/>
     <use x="1289.501953" xlink:href="#ArialMT-74"/>
     <use x="1317.285156" xlink:href="#ArialMT-69"/>
     <use x="1339.501953" xlink:href="#ArialMT-6f"/>
     <use x="1395.117188" xlink:href="#ArialMT-6e"/>
    </g>
    <!-- Based on Gender -->
    <g style="fill:#262626;" transform="translate(125.960313 57.22425)scale(0.12 -0.12)">
     <defs>
      <path d="M 469 0 
L 469 4581 
L 2188 4581 
Q 2713 4581 3030 4442 
Q 3347 4303 3526 4014 
Q 3706 3725 3706 3409 
Q 3706 3116 3547 2856 
Q 3388 2597 3066 2438 
Q 3481 2316 3704 2022 
Q 3928 1728 3928 1328 
Q 3928 1006 3792 729 
Q 3656 453 3456 303 
Q 3256 153 2954 76 
Q 2653 0 2216 0 
L 469 0 
z
M 1075 2656 
L 2066 2656 
Q 2469 2656 2644 2709 
Q 2875 2778 2992 2937 
Q 3109 3097 3109 3338 
Q 3109 3566 3000 3739 
Q 2891 3913 2687 3977 
Q 2484 4041 1991 4041 
L 1075 4041 
L 1075 2656 
z
M 1075 541 
L 2216 541 
Q 2509 541 2628 563 
Q 2838 600 2978 687 
Q 3119 775 3209 942 
Q 3300 1109 3300 1328 
Q 3300 1584 3169 1773 
Q 3038 1963 2805 2039 
Q 2572 2116 2134 2116 
L 1075 2116 
L 1075 541 
z
" id="ArialMT-42" transform="scale(0.015625)"/>
      <path d="M 2575 0 
L 2575 419 
Q 2259 -75 1647 -75 
Q 1250 -75 917 144 
Q 584 363 401 755 
Q 219 1147 219 1656 
Q 219 2153 384 2558 
Q 550 2963 881 3178 
Q 1213 3394 1622 3394 
Q 1922 3394 2156 3267 
Q 2391 3141 2538 2938 
L 2538 4581 
L 3097 4581 
L 3097 0 
L 2575 0 
z
M 797 1656 
Q 797 1019 1065 703 
Q 1334 388 1700 388 
Q 2069 388 2326 689 
Q 2584 991 2584 1609 
Q 2584 2291 2321 2609 
Q 2059 2928 1675 2928 
Q 1300 2928 1048 2622 
Q 797 2316 797 1656 
z
" id="ArialMT-64" transform="scale(0.015625)"/>
      <path d="M 2638 1797 
L 2638 2334 
L 4578 2338 
L 4578 638 
Q 4131 281 3656 101 
Q 3181 -78 2681 -78 
Q 2006 -78 1454 211 
Q 903 500 622 1047 
Q 341 1594 341 2269 
Q 341 2938 620 3517 
Q 900 4097 1425 4378 
Q 1950 4659 2634 4659 
Q 3131 4659 3532 4498 
Q 3934 4338 4162 4050 
Q 4391 3763 4509 3300 
L 3963 3150 
Q 3859 3500 3706 3700 
Q 3553 3900 3268 4020 
Q 2984 4141 2638 4141 
Q 2222 4141 1919 4014 
Q 1616 3888 1430 3681 
Q 1244 3475 1141 3228 
Q 966 2803 966 2306 
Q 966 1694 1177 1281 
Q 1388 869 1791 669 
Q 2194 469 2647 469 
Q 3041 469 3416 620 
Q 3791 772 3984 944 
L 3984 1797 
L 2638 1797 
z
" id="ArialMT-47" transform="scale(0.015625)"/>
     </defs>
     <use xlink:href="#ArialMT-42"/>
     <use x="66.699219" xlink:href="#ArialMT-61"/>
     <use x="122.314453" xlink:href="#ArialMT-73"/>
     <use x="172.314453" xlink:href="#ArialMT-65"/>
     <use x="227.929688" xlink:href="#ArialMT-64"/>
     <use x="283.544922" xlink:href="#ArialMT-20"/>
     <use x="311.328125" xlink:href="#ArialMT-6f"/>
     <use x="366.943359" xlink:href="#ArialMT-6e"/>
     <use x="422.558594" xlink:href="#ArialMT-20"/>
     <use x="450.341797" xlink:href="#ArialMT-47"/>
     <use x="528.125" xlink:href="#ArialMT-65"/>
     <use x="583.740234" xlink:href="#ArialMT-6e"/>
     <use x="639.355469" xlink:href="#ArialMT-64"/>
     <use x="694.970703" xlink:href="#ArialMT-65"/>
     <use x="750.585938" xlink:href="#ArialMT-72"/>
    </g>
   </g>
   <g id="legend_1">
    <g id="patch_11">
     <path d="M 215.149375 119.618313 
L 268.3 119.618313 
Q 270.5 119.618313 270.5 117.418313 
L 270.5 70.92425 
Q 270.5 68.72425 268.3 68.72425 
L 215.149375 68.72425 
Q 212.949375 68.72425 212.949375 70.92425 
L 212.949375 117.418313 
Q 212.949375 119.618313 215.149375 119.618313 
z
" style="fill:#ffffff;opacity:0.8;stroke:#cccccc;stroke-linejoin:miter;"/>
    </g>
    <g id="text_10">
     <!-- Stroke -->
     <g style="fill:#262626;" transform="translate(224.384688 81.713625)scale(0.12 -0.12)">
      <use xlink:href="#ArialMT-53"/>
      <use x="66.699219" xlink:href="#ArialMT-74"/>
      <use x="94.482422" xlink:href="#ArialMT-72"/>
      <use x="127.783203" xlink:href="#ArialMT-6f"/>
      <use x="183.398438" xlink:href="#ArialMT-6b"/>
      <use x="233.398438" xlink:href="#ArialMT-65"/>
     </g>
    </g>
    <g id="patch_12">
     <path d="M 217.349375 97.472219 
L 239.349375 97.472219 
L 239.349375 89.772219 
L 217.349375 89.772219 
z
" style="fill:#94c9de;stroke:#ffffff;stroke-linejoin:miter;"/>
    </g>
    <g id="text_11">
     <!-- No -->
     <g style="fill:#262626;" transform="translate(248.149375 97.472219)scale(0.11 -0.11)">
      <use xlink:href="#ArialMT-4e"/>
      <use x="72.216797" xlink:href="#ArialMT-6f"/>
     </g>
    </g>
    <g id="patch_13">
     <path d="M 217.349375 113.032063 
L 239.349375 113.032063 
L 239.349375 105.332063 
L 217.349375 105.332063 
z
" style="fill:#c32d4b;stroke:#ffffff;stroke-linejoin:miter;"/>
    </g>
    <g id="text_12">
     <!-- Yes -->
     <g style="fill:#262626;" transform="translate(248.149375 113.032063)scale(0.11 -0.11)">
      <defs>
       <path d="M 1784 0 
L 1784 1941 
L 19 4581 
L 756 4581 
L 1659 3200 
Q 1909 2813 2125 2425 
Q 2331 2784 2625 3234 
L 3513 4581 
L 4219 4581 
L 2391 1941 
L 2391 0 
L 1784 0 
z
" id="ArialMT-59" transform="scale(0.015625)"/>
      </defs>
      <use xlink:href="#ArialMT-59"/>
      <use x="57.574219" xlink:href="#ArialMT-65"/>
      <use x="113.189453" xlink:href="#ArialMT-73"/>
     </g>
    </g>
   </g>
  </g>
  <g id="axes_2">
   <g id="patch_14">
    <path d="M 345.98 376.42 
L 552 376.42 
L 552 63.22425 
L 345.98 63.22425 
z
" style="fill:#ffffff;"/>
   </g>
   <g id="matplotlib.axis_3">
    <g id="xtick_3">
     <g id="text_13">
      <!-- Married -->
      <g style="fill:#262626;" transform="translate(378.843437 393.793594)scale(0.11 -0.11)">
       <use xlink:href="#ArialMT-4d"/>
       <use x="83.300781" xlink:href="#ArialMT-61"/>
       <use x="138.916016" xlink:href="#ArialMT-72"/>
       <use x="172.216797" xlink:href="#ArialMT-72"/>
       <use x="205.517578" xlink:href="#ArialMT-69"/>
       <use x="227.734375" xlink:href="#ArialMT-65"/>
       <use x="283.349609" xlink:href="#ArialMT-64"/>
      </g>
     </g>
    </g>
    <g id="xtick_4">
     <g id="text_14">
      <!-- Not Married -->
      <g style="fill:#262626;" transform="translate(471.766953 393.793594)scale(0.11 -0.11)">
       <use xlink:href="#ArialMT-4e"/>
       <use x="72.216797" xlink:href="#ArialMT-6f"/>
       <use x="127.832031" xlink:href="#ArialMT-74"/>
       <use x="155.615234" xlink:href="#ArialMT-20"/>
       <use x="183.398438" xlink:href="#ArialMT-4d"/>
       <use x="266.699219" xlink:href="#ArialMT-61"/>
       <use x="322.314453" xlink:href="#ArialMT-72"/>
       <use x="355.615234" xlink:href="#ArialMT-72"/>
       <use x="388.916016" xlink:href="#ArialMT-69"/>
       <use x="411.132812" xlink:href="#ArialMT-65"/>
       <use x="466.748047" xlink:href="#ArialMT-64"/>
      </g>
     </g>
    </g>
   </g>
   <g id="matplotlib.axis_4">
    <g id="ytick_7">
     <g id="text_15">
      <!-- 0 -->
      <g style="fill:#262626;" transform="translate(330.362969 380.356797)scale(0.11 -0.11)">
       <use xlink:href="#ArialMT-30"/>
      </g>
     </g>
    </g>
    <g id="ytick_8">
     <g id="text_16">
      <!-- 500 -->
      <g style="fill:#262626;" transform="translate(318.128906 332.753594)scale(0.11 -0.11)">
       <use xlink:href="#ArialMT-35"/>
       <use x="55.615234" xlink:href="#ArialMT-30"/>
       <use x="111.230469" xlink:href="#ArialMT-30"/>
      </g>
     </g>
    </g>
    <g id="ytick_9">
     <g id="text_17">
      <!-- 1000 -->
      <g style="fill:#262626;" transform="translate(312.011875 285.150392)scale(0.11 -0.11)">
       <use xlink:href="#ArialMT-31"/>
       <use x="55.615234" xlink:href="#ArialMT-30"/>
       <use x="111.230469" xlink:href="#ArialMT-30"/>
       <use x="166.845703" xlink:href="#ArialMT-30"/>
      </g>
     </g>
    </g>
    <g id="ytick_10">
     <g id="text_18">
      <!-- 1500 -->
      <g style="fill:#262626;" transform="translate(312.011875 237.547189)scale(0.11 -0.11)">
       <use xlink:href="#ArialMT-31"/>
       <use x="55.615234" xlink:href="#ArialMT-35"/>
       <use x="111.230469" xlink:href="#ArialMT-30"/>
       <use x="166.845703" xlink:href="#ArialMT-30"/>
      </g>
     </g>
    </g>
    <g id="ytick_11">
     <g id="text_19">
      <!-- 2000 -->
      <g style="fill:#262626;" transform="translate(312.011875 189.943987)scale(0.11 -0.11)">
       <use xlink:href="#ArialMT-32"/>
       <use x="55.615234" xlink:href="#ArialMT-30"/>
       <use x="111.230469" xlink:href="#ArialMT-30"/>
       <use x="166.845703" xlink:href="#ArialMT-30"/>
      </g>
     </g>
    </g>
    <g id="ytick_12">
     <g id="text_20">
      <!-- 2500 -->
      <g style="fill:#262626;" transform="translate(312.011875 142.340785)scale(0.11 -0.11)">
       <use xlink:href="#ArialMT-32"/>
       <use x="55.615234" xlink:href="#ArialMT-35"/>
       <use x="111.230469" xlink:href="#ArialMT-30"/>
       <use x="166.845703" xlink:href="#ArialMT-30"/>
      </g>
     </g>
    </g>
    <g id="ytick_13">
     <g id="text_21">
      <!-- 3000 -->
      <g style="fill:#262626;" transform="translate(312.011875 94.737582)scale(0.11 -0.11)">
       <defs>
        <path d="M 269 1209 
L 831 1284 
Q 928 806 1161 595 
Q 1394 384 1728 384 
Q 2125 384 2398 659 
Q 2672 934 2672 1341 
Q 2672 1728 2419 1979 
Q 2166 2231 1775 2231 
Q 1616 2231 1378 2169 
L 1441 2663 
Q 1497 2656 1531 2656 
Q 1891 2656 2178 2843 
Q 2466 3031 2466 3422 
Q 2466 3731 2256 3934 
Q 2047 4138 1716 4138 
Q 1388 4138 1169 3931 
Q 950 3725 888 3313 
L 325 3413 
Q 428 3978 793 4289 
Q 1159 4600 1703 4600 
Q 2078 4600 2393 4439 
Q 2709 4278 2876 4000 
Q 3044 3722 3044 3409 
Q 3044 3113 2884 2869 
Q 2725 2625 2413 2481 
Q 2819 2388 3044 2092 
Q 3269 1797 3269 1353 
Q 3269 753 2831 336 
Q 2394 -81 1725 -81 
Q 1122 -81 723 278 
Q 325 638 269 1209 
z
" id="ArialMT-33" transform="scale(0.015625)"/>
       </defs>
       <use xlink:href="#ArialMT-33"/>
       <use x="55.615234" xlink:href="#ArialMT-30"/>
       <use x="111.230469" xlink:href="#ArialMT-30"/>
       <use x="166.845703" xlink:href="#ArialMT-30"/>
      </g>
     </g>
    </g>
   </g>
   <g id="patch_15">
    <path clip-path="url(#p59e1479b8e)" d="M 356.281 376.42 
L 438.689 376.42 
L 438.689 78.138333 
L 356.281 78.138333 
z
" style="fill:#94c9de;stroke:#ffffff;stroke-linejoin:miter;"/>
   </g>
   <g id="patch_16">
    <path clip-path="url(#p59e1479b8e)" d="M 459.291 376.42 
L 541.699 376.42 
L 541.699 211.998539 
L 459.291 211.998539 
z
" style="fill:#94c9de;stroke:#ffffff;stroke-linejoin:miter;"/>
   </g>
   <g id="patch_17">
    <path clip-path="url(#p59e1479b8e)" d="M 356.281 376.42 
L 438.689 376.42 
L 438.689 355.474591 
L 356.281 355.474591 
z
" style="fill:#c32d4b;stroke:#ffffff;stroke-linejoin:miter;"/>
   </g>
   <g id="patch_18">
    <path clip-path="url(#p59e1479b8e)" d="M 459.291 376.42 
L 541.699 376.42 
L 541.699 373.659014 
L 459.291 373.659014 
z
" style="fill:#c32d4b;stroke:#ffffff;stroke-linejoin:miter;"/>
   </g>
   <g id="patch_19">
    <path d="M 345.98 376.42 
L 345.98 63.22425 
" style="fill:none;stroke:#262626;stroke-linecap:square;stroke-linejoin:miter;stroke-width:1.25;"/>
   </g>
   <g id="patch_20">
    <path d="M 552 376.42 
L 552 63.22425 
" style="fill:none;stroke:#262626;stroke-linecap:square;stroke-linejoin:miter;stroke-width:1.25;"/>
   </g>
   <g id="patch_21">
    <path d="M 345.98 376.42 
L 552 376.42 
" style="fill:none;stroke:#262626;stroke-linecap:square;stroke-linejoin:miter;stroke-width:1.25;"/>
   </g>
   <g id="patch_22">
    <path d="M 345.98 63.22425 
L 552 63.22425 
" style="fill:none;stroke:#262626;stroke-linecap:square;stroke-linejoin:miter;stroke-width:1.25;"/>
   </g>
   <g id="text_22">
    <!-- Stroke vs Non-Stroke Population -->
    <g style="fill:#262626;" transform="translate(361.950625 44.532)scale(0.12 -0.12)">
     <use xlink:href="#ArialMT-53"/>
     <use x="66.699219" xlink:href="#ArialMT-74"/>
     <use x="94.482422" xlink:href="#ArialMT-72"/>
     <use x="127.783203" xlink:href="#ArialMT-6f"/>
     <use x="183.398438" xlink:href="#ArialMT-6b"/>
     <use x="233.398438" xlink:href="#ArialMT-65"/>
     <use x="289.013672" xlink:href="#ArialMT-20"/>
     <use x="316.796875" xlink:href="#ArialMT-76"/>
     <use x="366.796875" xlink:href="#ArialMT-73"/>
     <use x="416.796875" xlink:href="#ArialMT-20"/>
     <use x="444.580078" xlink:href="#ArialMT-4e"/>
     <use x="516.796875" xlink:href="#ArialMT-6f"/>
     <use x="572.412109" xlink:href="#ArialMT-6e"/>
     <use x="628.027344" xlink:href="#ArialMT-2d"/>
     <use x="661.328125" xlink:href="#ArialMT-53"/>
     <use x="728.027344" xlink:href="#ArialMT-74"/>
     <use x="755.810547" xlink:href="#ArialMT-72"/>
     <use x="789.111328" xlink:href="#ArialMT-6f"/>
     <use x="844.726562" xlink:href="#ArialMT-6b"/>
     <use x="894.726562" xlink:href="#ArialMT-65"/>
     <use x="950.341797" xlink:href="#ArialMT-20"/>
     <use x="978.125" xlink:href="#ArialMT-50"/>
     <use x="1044.824219" xlink:href="#ArialMT-6f"/>
     <use x="1100.439453" xlink:href="#ArialMT-70"/>
     <use x="1156.054688" xlink:href="#ArialMT-75"/>
     <use x="1211.669922" xlink:href="#ArialMT-6c"/>
     <use x="1233.886719" xlink:href="#ArialMT-61"/>
     <use x="1289.501953" xlink:href="#ArialMT-74"/>
     <use x="1317.285156" xlink:href="#ArialMT-69"/>
     <use x="1339.501953" xlink:href="#ArialMT-6f"/>
     <use x="1395.117188" xlink:href="#ArialMT-6e"/>
    </g>
    <!-- Based on Marital Status -->
    <g style="fill:#262626;" transform="translate(385.293437 57.22425)scale(0.12 -0.12)">
     <use xlink:href="#ArialMT-42"/>
     <use x="66.699219" xlink:href="#ArialMT-61"/>
     <use x="122.314453" xlink:href="#ArialMT-73"/>
     <use x="172.314453" xlink:href="#ArialMT-65"/>
     <use x="227.929688" xlink:href="#ArialMT-64"/>
     <use x="283.544922" xlink:href="#ArialMT-20"/>
     <use x="311.328125" xlink:href="#ArialMT-6f"/>
     <use x="366.943359" xlink:href="#ArialMT-6e"/>
     <use x="422.558594" xlink:href="#ArialMT-20"/>
     <use x="450.341797" xlink:href="#ArialMT-4d"/>
     <use x="533.642578" xlink:href="#ArialMT-61"/>
     <use x="589.257812" xlink:href="#ArialMT-72"/>
     <use x="622.558594" xlink:href="#ArialMT-69"/>
     <use x="644.775391" xlink:href="#ArialMT-74"/>
     <use x="672.558594" xlink:href="#ArialMT-61"/>
     <use x="728.173828" xlink:href="#ArialMT-6c"/>
     <use x="750.390625" xlink:href="#ArialMT-20"/>
     <use x="778.173828" xlink:href="#ArialMT-53"/>
     <use x="844.873047" xlink:href="#ArialMT-74"/>
     <use x="872.65625" xlink:href="#ArialMT-61"/>
     <use x="928.271484" xlink:href="#ArialMT-74"/>
     <use x="956.054688" xlink:href="#ArialMT-75"/>
     <use x="1011.669922" xlink:href="#ArialMT-73"/>
    </g>
   </g>
   <g id="legend_2">
    <g id="patch_23">
     <path d="M 491.149375 119.618313 
L 544.3 119.618313 
Q 546.5 119.618313 546.5 117.418313 
L 546.5 70.92425 
Q 546.5 68.72425 544.3 68.72425 
L 491.149375 68.72425 
Q 488.949375 68.72425 488.949375 70.92425 
L 488.949375 117.418313 
Q 488.949375 119.618313 491.149375 119.618313 
z
" style="fill:#ffffff;opacity:0.8;stroke:#cccccc;stroke-linejoin:miter;"/>
    </g>
    <g id="text_23">
     <!-- Stroke -->
     <g style="fill:#262626;" transform="translate(500.384687 81.713625)scale(0.12 -0.12)">
      <use xlink:href="#ArialMT-53"/>
      <use x="66.699219" xlink:href="#ArialMT-74"/>
      <use x="94.482422" xlink:href="#ArialMT-72"/>
      <use x="127.783203" xlink:href="#ArialMT-6f"/>
      <use x="183.398438" xlink:href="#ArialMT-6b"/>
      <use x="233.398438" xlink:href="#ArialMT-65"/>
     </g>
    </g>
    <g id="patch_24">
     <path d="M 493.349375 97.472219 
L 515.349375 97.472219 
L 515.349375 89.772219 
L 493.349375 89.772219 
z
" style="fill:#94c9de;stroke:#ffffff;stroke-linejoin:miter;"/>
    </g>
    <g id="text_24">
     <!-- No -->
     <g style="fill:#262626;" transform="translate(524.149375 97.472219)scale(0.11 -0.11)">
      <use xlink:href="#ArialMT-4e"/>
      <use x="72.216797" xlink:href="#ArialMT-6f"/>
     </g>
    </g>
    <g id="patch_25">
     <path d="M 493.349375 113.032063 
L 515.349375 113.032063 
L 515.349375 105.332063 
L 493.349375 105.332063 
z
" style="fill:#c32d4b;stroke:#ffffff;stroke-linejoin:miter;"/>
    </g>
    <g id="text_25">
     <!-- Yes -->
     <g style="fill:#262626;" transform="translate(524.149375 113.032063)scale(0.11 -0.11)">
      <use xlink:href="#ArialMT-59"/>
      <use x="57.574219" xlink:href="#ArialMT-65"/>
      <use x="113.189453" xlink:href="#ArialMT-73"/>
     </g>
    </g>
   </g>
  </g>
  <g id="axes_3">
   <g id="patch_26">
    <path d="M 621.98 376.42 
L 828 376.42 
L 828 63.22425 
L 621.98 63.22425 
z
" style="fill:#ffffff;"/>
   </g>
   <g id="matplotlib.axis_5">
    <g id="xtick_5">
     <g id="text_26">
      <!-- Urban -->
      <g style="fill:#262626;" transform="translate(658.506094 393.793594)scale(0.11 -0.11)">
       <defs>
        <path d="M 3500 4581 
L 4106 4581 
L 4106 1934 
Q 4106 1244 3950 837 
Q 3794 431 3386 176 
Q 2978 -78 2316 -78 
Q 1672 -78 1262 144 
Q 853 366 678 786 
Q 503 1206 503 1934 
L 503 4581 
L 1109 4581 
L 1109 1938 
Q 1109 1341 1220 1058 
Q 1331 775 1601 622 
Q 1872 469 2263 469 
Q 2931 469 3215 772 
Q 3500 1075 3500 1938 
L 3500 4581 
z
" id="ArialMT-55" transform="scale(0.015625)"/>
        <path d="M 941 0 
L 419 0 
L 419 4581 
L 981 4581 
L 981 2947 
Q 1338 3394 1891 3394 
Q 2197 3394 2470 3270 
Q 2744 3147 2920 2923 
Q 3097 2700 3197 2384 
Q 3297 2069 3297 1709 
Q 3297 856 2875 390 
Q 2453 -75 1863 -75 
Q 1275 -75 941 416 
L 941 0 
z
M 934 1684 
Q 934 1088 1097 822 
Q 1363 388 1816 388 
Q 2184 388 2453 708 
Q 2722 1028 2722 1663 
Q 2722 2313 2464 2622 
Q 2206 2931 1841 2931 
Q 1472 2931 1203 2611 
Q 934 2291 934 1684 
z
" id="ArialMT-62" transform="scale(0.015625)"/>
       </defs>
       <use xlink:href="#ArialMT-55"/>
       <use x="72.216797" xlink:href="#ArialMT-72"/>
       <use x="105.517578" xlink:href="#ArialMT-62"/>
       <use x="161.132812" xlink:href="#ArialMT-61"/>
       <use x="216.748047" xlink:href="#ArialMT-6e"/>
      </g>
     </g>
    </g>
    <g id="xtick_6">
     <g id="text_27">
      <!-- Rural -->
      <g style="fill:#262626;" transform="translate(763.352578 393.793594)scale(0.11 -0.11)">
       <defs>
        <path d="M 503 0 
L 503 4581 
L 2534 4581 
Q 3147 4581 3465 4457 
Q 3784 4334 3975 4021 
Q 4166 3709 4166 3331 
Q 4166 2844 3850 2509 
Q 3534 2175 2875 2084 
Q 3116 1969 3241 1856 
Q 3506 1613 3744 1247 
L 4541 0 
L 3778 0 
L 3172 953 
Q 2906 1366 2734 1584 
Q 2563 1803 2427 1890 
Q 2291 1978 2150 2013 
Q 2047 2034 1813 2034 
L 1109 2034 
L 1109 0 
L 503 0 
z
M 1109 2559 
L 2413 2559 
Q 2828 2559 3062 2645 
Q 3297 2731 3419 2920 
Q 3541 3109 3541 3331 
Q 3541 3656 3305 3865 
Q 3069 4075 2559 4075 
L 1109 4075 
L 1109 2559 
z
" id="ArialMT-52" transform="scale(0.015625)"/>
       </defs>
       <use xlink:href="#ArialMT-52"/>
       <use x="72.216797" xlink:href="#ArialMT-75"/>
       <use x="127.832031" xlink:href="#ArialMT-72"/>
       <use x="161.132812" xlink:href="#ArialMT-61"/>
       <use x="216.748047" xlink:href="#ArialMT-6c"/>
      </g>
     </g>
    </g>
   </g>
   <g id="matplotlib.axis_6">
    <g id="ytick_14">
     <g id="text_28">
      <!-- 0 -->
      <g style="fill:#262626;" transform="translate(606.362969 380.356797)scale(0.11 -0.11)">
       <use xlink:href="#ArialMT-30"/>
      </g>
     </g>
    </g>
    <g id="ytick_15">
     <g id="text_29">
      <!-- 500 -->
      <g style="fill:#262626;" transform="translate(594.128906 319.755077)scale(0.11 -0.11)">
       <use xlink:href="#ArialMT-35"/>
       <use x="55.615234" xlink:href="#ArialMT-30"/>
       <use x="111.230469" xlink:href="#ArialMT-30"/>
      </g>
     </g>
    </g>
    <g id="ytick_16">
     <g id="text_30">
      <!-- 1000 -->
      <g style="fill:#262626;" transform="translate(588.011875 259.153357)scale(0.11 -0.11)">
       <use xlink:href="#ArialMT-31"/>
       <use x="55.615234" xlink:href="#ArialMT-30"/>
       <use x="111.230469" xlink:href="#ArialMT-30"/>
       <use x="166.845703" xlink:href="#ArialMT-30"/>
      </g>
     </g>
    </g>
    <g id="ytick_17">
     <g id="text_31">
      <!-- 1500 -->
      <g style="fill:#262626;" transform="translate(588.011875 198.551636)scale(0.11 -0.11)">
       <use xlink:href="#ArialMT-31"/>
       <use x="55.615234" xlink:href="#ArialMT-35"/>
       <use x="111.230469" xlink:href="#ArialMT-30"/>
       <use x="166.845703" xlink:href="#ArialMT-30"/>
      </g>
     </g>
    </g>
    <g id="ytick_18">
     <g id="text_32">
      <!-- 2000 -->
      <g style="fill:#262626;" transform="translate(588.011875 137.949916)scale(0.11 -0.11)">
       <use xlink:href="#ArialMT-32"/>
       <use x="55.615234" xlink:href="#ArialMT-30"/>
       <use x="111.230469" xlink:href="#ArialMT-30"/>
       <use x="166.845703" xlink:href="#ArialMT-30"/>
      </g>
     </g>
    </g>
    <g id="ytick_19">
     <g id="text_33">
      <!-- 2500 -->
      <g style="fill:#262626;" transform="translate(588.011875 77.348196)scale(0.11 -0.11)">
       <use xlink:href="#ArialMT-32"/>
       <use x="55.615234" xlink:href="#ArialMT-35"/>
       <use x="111.230469" xlink:href="#ArialMT-30"/>
       <use x="166.845703" xlink:href="#ArialMT-30"/>
      </g>
     </g>
    </g>
   </g>
   <g id="patch_27">
    <path clip-path="url(#pffb806d4a2)" d="M 632.281 376.42 
L 714.689 376.42 
L 714.689 78.138333 
L 632.281 78.138333 
z
" style="fill:#94c9de;stroke:#ffffff;stroke-linejoin:miter;"/>
   </g>
   <g id="patch_28">
    <path clip-path="url(#pffb806d4a2)" d="M 735.291 376.42 
L 817.699 376.42 
L 817.699 85.652947 
L 735.291 85.652947 
z
" style="fill:#94c9de;stroke:#ffffff;stroke-linejoin:miter;"/>
   </g>
   <g id="patch_29">
    <path clip-path="url(#pffb806d4a2)" d="M 632.281 376.42 
L 714.689 376.42 
L 714.689 360.057536 
L 632.281 360.057536 
z
" style="fill:#c32d4b;stroke:#ffffff;stroke-linejoin:miter;"/>
   </g>
   <g id="patch_30">
    <path clip-path="url(#pffb806d4a2)" d="M 735.291 376.42 
L 817.699 376.42 
L 817.699 362.602808 
L 735.291 362.602808 
z
" style="fill:#c32d4b;stroke:#ffffff;stroke-linejoin:miter;"/>
   </g>
   <g id="patch_31">
    <path d="M 621.98 376.42 
L 621.98 63.22425 
" style="fill:none;stroke:#262626;stroke-linecap:square;stroke-linejoin:miter;stroke-width:1.25;"/>
   </g>
   <g id="patch_32">
    <path d="M 828 376.42 
L 828 63.22425 
" style="fill:none;stroke:#262626;stroke-linecap:square;stroke-linejoin:miter;stroke-width:1.25;"/>
   </g>
   <g id="patch_33">
    <path d="M 621.98 376.42 
L 828 376.42 
" style="fill:none;stroke:#262626;stroke-linecap:square;stroke-linejoin:miter;stroke-width:1.25;"/>
   </g>
   <g id="patch_34">
    <path d="M 621.98 63.22425 
L 828 63.22425 
" style="fill:none;stroke:#262626;stroke-linecap:square;stroke-linejoin:miter;stroke-width:1.25;"/>
   </g>
   <g id="text_34">
    <!-- Stroke vs Non-Stroke Population -->
    <g style="fill:#262626;" transform="translate(637.950625 44.532)scale(0.12 -0.12)">
     <use xlink:href="#ArialMT-53"/>
     <use x="66.699219" xlink:href="#ArialMT-74"/>
     <use x="94.482422" xlink:href="#ArialMT-72"/>
     <use x="127.783203" xlink:href="#ArialMT-6f"/>
     <use x="183.398438" xlink:href="#ArialMT-6b"/>
     <use x="233.398438" xlink:href="#ArialMT-65"/>
     <use x="289.013672" xlink:href="#ArialMT-20"/>
     <use x="316.796875" xlink:href="#ArialMT-76"/>
     <use x="366.796875" xlink:href="#ArialMT-73"/>
     <use x="416.796875" xlink:href="#ArialMT-20"/>
     <use x="444.580078" xlink:href="#ArialMT-4e"/>
     <use x="516.796875" xlink:href="#ArialMT-6f"/>
     <use x="572.412109" xlink:href="#ArialMT-6e"/>
     <use x="628.027344" xlink:href="#ArialMT-2d"/>
     <use x="661.328125" xlink:href="#ArialMT-53"/>
     <use x="728.027344" xlink:href="#ArialMT-74"/>
     <use x="755.810547" xlink:href="#ArialMT-72"/>
     <use x="789.111328" xlink:href="#ArialMT-6f"/>
     <use x="844.726562" xlink:href="#ArialMT-6b"/>
     <use x="894.726562" xlink:href="#ArialMT-65"/>
     <use x="950.341797" xlink:href="#ArialMT-20"/>
     <use x="978.125" xlink:href="#ArialMT-50"/>
     <use x="1044.824219" xlink:href="#ArialMT-6f"/>
     <use x="1100.439453" xlink:href="#ArialMT-70"/>
     <use x="1156.054688" xlink:href="#ArialMT-75"/>
     <use x="1211.669922" xlink:href="#ArialMT-6c"/>
     <use x="1233.886719" xlink:href="#ArialMT-61"/>
     <use x="1289.501953" xlink:href="#ArialMT-74"/>
     <use x="1317.285156" xlink:href="#ArialMT-69"/>
     <use x="1339.501953" xlink:href="#ArialMT-6f"/>
     <use x="1395.117188" xlink:href="#ArialMT-6e"/>
    </g>
    <!-- Based on Residence Type -->
    <g style="fill:#262626;" transform="translate(655.0525 57.22425)scale(0.12 -0.12)">
     <defs>
      <path d="M 2588 1216 
L 3141 1144 
Q 3050 572 2676 248 
Q 2303 -75 1759 -75 
Q 1078 -75 664 370 
Q 250 816 250 1647 
Q 250 2184 428 2587 
Q 606 2991 970 3192 
Q 1334 3394 1763 3394 
Q 2303 3394 2647 3120 
Q 2991 2847 3088 2344 
L 2541 2259 
Q 2463 2594 2264 2762 
Q 2066 2931 1784 2931 
Q 1359 2931 1093 2626 
Q 828 2322 828 1663 
Q 828 994 1084 691 
Q 1341 388 1753 388 
Q 2084 388 2306 591 
Q 2528 794 2588 1216 
z
" id="ArialMT-63" transform="scale(0.015625)"/>
      <path d="M 1659 0 
L 1659 4041 
L 150 4041 
L 150 4581 
L 3781 4581 
L 3781 4041 
L 2266 4041 
L 2266 0 
L 1659 0 
z
" id="ArialMT-54" transform="scale(0.015625)"/>
      <path d="M 397 -1278 
L 334 -750 
Q 519 -800 656 -800 
Q 844 -800 956 -737 
Q 1069 -675 1141 -563 
Q 1194 -478 1313 -144 
Q 1328 -97 1363 -6 
L 103 3319 
L 709 3319 
L 1400 1397 
Q 1534 1031 1641 628 
Q 1738 1016 1872 1384 
L 2581 3319 
L 3144 3319 
L 1881 -56 
Q 1678 -603 1566 -809 
Q 1416 -1088 1222 -1217 
Q 1028 -1347 759 -1347 
Q 597 -1347 397 -1278 
z
" id="ArialMT-79" transform="scale(0.015625)"/>
     </defs>
     <use xlink:href="#ArialMT-42"/>
     <use x="66.699219" xlink:href="#ArialMT-61"/>
     <use x="122.314453" xlink:href="#ArialMT-73"/>
     <use x="172.314453" xlink:href="#ArialMT-65"/>
     <use x="227.929688" xlink:href="#ArialMT-64"/>
     <use x="283.544922" xlink:href="#ArialMT-20"/>
     <use x="311.328125" xlink:href="#ArialMT-6f"/>
     <use x="366.943359" xlink:href="#ArialMT-6e"/>
     <use x="422.558594" xlink:href="#ArialMT-20"/>
     <use x="450.341797" xlink:href="#ArialMT-52"/>
     <use x="522.558594" xlink:href="#ArialMT-65"/>
     <use x="578.173828" xlink:href="#ArialMT-73"/>
     <use x="628.173828" xlink:href="#ArialMT-69"/>
     <use x="650.390625" xlink:href="#ArialMT-64"/>
     <use x="706.005859" xlink:href="#ArialMT-65"/>
     <use x="761.621094" xlink:href="#ArialMT-6e"/>
     <use x="817.236328" xlink:href="#ArialMT-63"/>
     <use x="867.236328" xlink:href="#ArialMT-65"/>
     <use x="922.851562" xlink:href="#ArialMT-20"/>
     <use x="948.884766" xlink:href="#ArialMT-54"/>
     <use x="1004.46875" xlink:href="#ArialMT-79"/>
     <use x="1054.46875" xlink:href="#ArialMT-70"/>
     <use x="1110.083984" xlink:href="#ArialMT-65"/>
    </g>
   </g>
   <g id="legend_3">
    <g id="patch_35">
     <path d="M 767.149375 119.618313 
L 820.3 119.618313 
Q 822.5 119.618313 822.5 117.418313 
L 822.5 70.92425 
Q 822.5 68.72425 820.3 68.72425 
L 767.149375 68.72425 
Q 764.949375 68.72425 764.949375 70.92425 
L 764.949375 117.418313 
Q 764.949375 119.618313 767.149375 119.618313 
z
" style="fill:#ffffff;opacity:0.8;stroke:#cccccc;stroke-linejoin:miter;"/>
    </g>
    <g id="text_35">
     <!-- Stroke -->
     <g style="fill:#262626;" transform="translate(776.384687 81.713625)scale(0.12 -0.12)">
      <use xlink:href="#ArialMT-53"/>
      <use x="66.699219" xlink:href="#ArialMT-74"/>
      <use x="94.482422" xlink:href="#ArialMT-72"/>
      <use x="127.783203" xlink:href="#ArialMT-6f"/>
      <use x="183.398438" xlink:href="#ArialMT-6b"/>
      <use x="233.398438" xlink:href="#ArialMT-65"/>
     </g>
    </g>
    <g id="patch_36">
     <path d="M 769.349375 97.472219 
L 791.349375 97.472219 
L 791.349375 89.772219 
L 769.349375 89.772219 
z
" style="fill:#94c9de;stroke:#ffffff;stroke-linejoin:miter;"/>
    </g>
    <g id="text_36">
     <!-- No -->
     <g style="fill:#262626;" transform="translate(800.149375 97.472219)scale(0.11 -0.11)">
      <use xlink:href="#ArialMT-4e"/>
      <use x="72.216797" xlink:href="#ArialMT-6f"/>
     </g>
    </g>
    <g id="patch_37">
     <path d="M 769.349375 113.032063 
L 791.349375 113.032063 
L 791.349375 105.332063 
L 769.349375 105.332063 
z
" style="fill:#c32d4b;stroke:#ffffff;stroke-linejoin:miter;"/>
    </g>
    <g id="text_37">
     <!-- Yes -->
     <g style="fill:#262626;" transform="translate(800.149375 113.032063)scale(0.11 -0.11)">
      <use xlink:href="#ArialMT-59"/>
      <use x="57.574219" xlink:href="#ArialMT-65"/>
      <use x="113.189453" xlink:href="#ArialMT-73"/>
     </g>
    </g>
   </g>
  </g>
 </g>
 <defs>
  <clipPath id="pfba7fd7d3c">
   <rect height="313.19575" width="206.02" x="69.98" y="63.22425"/>
  </clipPath>
  <clipPath id="p59e1479b8e">
   <rect height="313.19575" width="206.02" x="345.98" y="63.22425"/>
  </clipPath>
  <clipPath id="pffb806d4a2">
   <rect height="313.19575" width="206.02" x="621.98" y="63.22425"/>
  </clipPath>
 </defs>
</svg>
